<svg width="1022" height="421" viewBox="0 0 1022 421" fill="none" xmlns="http://www.w3.org/2000/svg">
<path d="M911.674 127.055V333.58H963.183V127.055H1021.07V87.3197H963.183V16.189L911.674 26.4906V87.3197H867.523V127.055H911.674Z" fill="#151A23"/>
<path d="M634.045 333.579V87.3198H683.101V133.432H684.082C690.296 116.753 699.944 103.999 713.025 95.1687C726.434 86.0116 742.132 81.4331 760.119 81.4331C775.817 81.4331 790.044 85.0305 802.798 92.2254C815.88 99.0931 826.345 109.558 834.194 123.621C842.043 137.684 845.968 155.671 845.968 177.582V333.579H794.459V184.45C794.459 165.155 789.88 150.275 780.723 139.809C771.566 129.017 759.302 123.621 743.931 123.621C726.271 123.621 712.044 130.162 701.252 143.243C690.787 156.325 685.554 173.494 685.554 194.752V333.579H634.045Z" fill="#151A23"/>
<path d="M366.137 87.3201H421.08L489.268 306.599H490.249L557.947 87.3201H610.437L500.06 420.899H449.532L484.362 321.806H444.627L366.137 87.3201Z" fill="#151A23"/>
<path d="M277.547 333.578V0H329.056V333.578H277.547Z" fill="#151A23"/>
<path d="M178.565 0H239.885L101.546 179.053L103.999 145.695L244.791 333.579H181.018L56.4147 163.846L178.565 0ZM0 0H52.9807V333.579H0V0Z" fill="#151A23"/>
</svg>
