<svg width="92" height="28" viewBox="0 0 92 28" fill="none" xmlns="http://www.w3.org/2000/svg">
<g clip-path="url(#clip0_758_11750)">
<path d="M19.3428 22.415L13.8369 28L13.8604 16.8535L19.3428 22.415ZM11.1211 25.2451L0 13.9629L11.1211 2.68066V25.2451ZM27.6006 14.0371L21.1777 20.5527L14.7539 14.0371L21.1777 7.52148L27.6006 14.0371ZM19.3428 5.65918L13.8193 11.2637L13.7637 0L19.3428 5.65918Z" fill="#1B1A17"/>
<path d="M85.8078 12.1615V23.0471H88.9966V12.1615H92.0005V9.69826H88.9966V5.85791L85.8078 6.44062V9.69826H83.5156V12.1615H85.8078Z" fill="#1B1A17"/>
<path d="M70.5898 23.0469V9.69817H73.6202V12.2938H73.6993C73.9803 11.3932 74.4721 10.6869 75.1749 10.1749C75.8951 9.64516 76.756 9.38037 77.7573 9.38037C78.6006 9.38037 79.3643 9.57469 80.0502 9.96296C80.7351 10.3339 81.2887 10.8989 81.71 11.6581C82.1312 12.4174 82.3422 13.3885 82.3422 14.5716V23.0469H79.1541V15.1012C79.1541 14.1301 78.9171 13.3797 78.4423 12.8499C77.9853 12.3202 77.3887 12.0555 76.6505 12.0555C75.7546 12.0555 75.0519 12.3821 74.5425 13.0354C74.033 13.6887 73.7783 14.5627 73.7783 15.6574V23.0469H70.5898Z" fill="#1B1A17"/>
<path d="M55.3945 9.69824H58.7673L62.2458 21.5637H62.2984L65.7504 9.69824H69.0181L63.3262 27.7084H60.1903L61.9032 22.5966H59.4789L55.3945 9.69824Z" fill="#1B1A17"/>
<path d="M50.5371 23.0472V4.61328H53.7256V23.0472H50.5371Z" fill="#1B1A17"/>
<path d="M44.8154 5.03662H48.5573L41.3371 14.8097L41.4951 12.7174L48.8208 23.0468H44.9471L38.6229 13.8562L44.8154 5.03662ZM35.1973 5.03662H38.4648V23.0468H35.1973V5.03662Z" fill="#1B1A17"/>
</g>
<defs>
<clipPath id="clip0_758_11750">
<rect width="92" height="28" fill="white"/>
</clipPath>
</defs>
</svg>
