<?xml version="1.0" encoding="UTF-8"?><svg xmlns="http://www.w3.org/2000/svg" data-name="ARTWORK" viewBox="0 0 1000 1000"><path fill="#50b3ff" d="M75.302 644.388c55.638-9.376 111.606-16.666 167.703-22.657 55.75-5.954 111.762-10.082 167.796-12.065a2360 2360 0 0 1 168.221.044c56.05 2.015 112.022 6.049 167.787 12.034 27.843 2.988 55.581 6.699 83.343 10.341 28.154 3.693 56.472 6.944 84.912 6.65a325 325 0 0 0 21.04-.908c3.832-.289 3.863-6.3 0-6.009-56.7 4.272-113.246-7.37-169.33-13.95-55.982-6.568-112.203-11.069-168.514-13.553a2360 2360 0 0 0-168.215-1.417c-56.353 1.535-112.623 4.936-168.721 10.525-55.783 5.558-111.267 13.609-166.392 23.772-6.853 1.263-13.7 2.56-20.542 3.882-2.183.422-1.239 3.674.913 3.311Z"/><path fill="#50b3ff" d="M104.599 626.109c51.329-16.014 103.817-28.424 156.803-37.542 53.303-9.172 107.228-14.526 161.25-16.957 54.156-2.437 108.451-1.721 162.543 1.794 54.057 3.513 107.934 9.944 161.38 18.753 55.235 9.104 110.324 21.374 166.507 22.595 7.004.152 14.009.114 21.012-.096 4.508-.135 4.53-7.143 0-7.023-57.104 1.512-113.194-10.232-169.173-19.856-53.387-9.178-107.137-15.826-161.166-19.772-54.077-3.949-108.364-5.118-162.554-3.148-53.799 1.956-107.37 7.235-160.551 15.591-53.396 8.389-106.141 20.336-157.834 36.149a1167 1167 0 0 0-19.172 6.052c-2.185.71-1.263 4.153.954 3.461Zm-42.844 37.689c64.05-1.549 128.08-3.315 192.107-5.664 64.162-2.354 128.307-4.161 192.508-4.945 32.213-.393 64.423-.843 96.639-1.007 32.203-.164 64.421-1.14 96.624-.906 49.725.362 99.38 2.979 149.098 4.076 47.34 1.044 94.671 2.527 141.942 5.363q6.876.412 13.75.874c5.229.352 5.167-7.704 0-8.116-45.499-3.628-91.13-5.957-136.713-8.242-23.944-1.2-47.874-2.285-71.844-2.755-23.895-.468-47.756.644-71.653.259-64.428-1.039-128.806-3.81-193.245-4.623-64.215-.811-128.533 1.624-192.652 4.905-64.367 3.294-128.684 7.356-192.984 11.755l-23.576 1.613c-4.71.322-4.816 7.53 0 7.414Z"/><path fill="#50b3ff" d="M890.78 654.709c-59.118 9.81-117.87 21.522-176.045 35.927-7.319 1.812-14.639 3.626-21.926 5.56-6.381 1.694-12.88 3.201-19.001 5.714-11.161 4.582-21.007 13.695-19.527 26.778 1.358 12.007 11.201 16.22 21.514 19.123 4.345 1.223 9.539 2.621 12.434 6.381 2.641 3.431 2.924 8.451 2.139 12.545-2.076 10.816-10.814 17.679-20.56 21.614-12.622 5.096-26.395 7.797-39.523 11.261-28.904 7.626-57.814 15.219-86.703 22.9-29.342 7.802-58.598 15.924-87.941 23.726-28.881 7.679-57.947 14.711-86.963 21.862-29.484 7.266-59.013 14.347-88.56 21.349-29.079 6.89-57.999 14.414-87.106 21.18q-11.09 2.578-22.185 5.136c-4.212.971-2.427 7.41 1.784 6.471 29.413-6.559 58.997-12.508 88.339-19.36a12560 12560 0 0 0 87.949-20.871c58.592-14.127 117.167-28.325 175.747-42.5 29.521-7.143 58.926-14.726 88.264-22.584a9598 9598 0 0 0 43.152-11.64c11.707-3.194 23.592-6.971 32.932-15.054 8.322-7.202 12.636-17.926 11.045-28.89-1.536-10.584-9.054-17.278-18.855-20.458-4.427-1.436-9.448-2.328-13.315-5.068-4.208-2.982-4.369-7.72-2.1-12.023 5.78-10.96 19.355-12.953 30.276-15.852 57.807-15.345 115.747-30.171 174.202-42.877q11.036-2.398 22.089-4.705c3.728-.779 2.099-6.25-1.556-5.644Z"/><path fill="#50b3ff" d="M891.189 652.424c-42.156 12.618-83.5 27.917-124.941 42.674-10.311 3.672-20.67 7.234-30.937 11.026-4.579 1.691-10.328 3.127-13.018 7.618-2.36 3.94-1.765 8.811.283 12.737 4.393 8.424 14.86 9.049 22.585 12.643 7.372 3.429 14.05 8.14 19.612 14.079 11.573 12.359 16.627 29.603 12.927 45.903-1.863 8.205-5.836 15.117-11.587 21.211-3.115 3.302-6.62 6.044-10.005 9.043-3.194 2.829-6.774 4.979-10.454 7.121-17.474 10.171-35.595 19.301-53.828 28.017a1581 1581 0 0 1-57.139 25.935c-19.215 8.267-38.687 15.97-58.211 23.475-9.596 3.689-19.24 7.255-28.859 10.882-9.857 3.716-19.65 7.672-29.597 11.138-4.866 1.695-9.712 3.398-14.521 5.247-1.79.689-1.122 3.458.809 2.935 10.134-2.748 20.109-6.138 30.129-9.28 10.028-3.145 19.956-6.626 29.812-10.269a1377 1377 0 0 0 58.008-22.937c38.357-16.189 76.008-33.824 113.448-52.02 8.336-4.051 16.411-8.502 24.613-12.787 8.075-4.219 15.13-11.04 20.039-18.676 10.06-15.648 10.483-35.96 3.123-52.753-6.972-15.906-20.93-27.89-36.826-34.358-3.891-1.583-8.109-2.565-11.867-4.434-1.499-.745-3.084-1.643-4.093-2.995a7.3 7.3 0 0 1-1.005-1.851c.047.13-.32-1.295-.273-.961.045.321.042-1.503-.048-.806.173-1.329.814-1.887 2.2-2.563 2.072-1.011 4.428-1.573 6.616-2.328 5.234-1.808 10.436-3.714 15.652-5.571 41.39-14.739 82.98-29.061 123.841-45.217 5.051-1.997 10.094-4.003 15.111-6.083 3.456-1.433 2.22-6.937-1.597-5.794ZM470.91 517.505c-.606 16.434-1.389 32.881-1.497 49.326-.107 16.276-.267 32.552-.248 48.828l.016 13.951.008 6.975c.003 2.747-.085 5.254 1.331 7.712 1.284 2.228 4.646 2.228 5.93 0 1.246-2.163 1.327-4.279 1.33-6.715l.007-6.477.014-12.456q.014-12.208-.065-24.414c-.107-16.282-.134-32.554-.688-48.828q-.475-13.951-.989-27.902c-.122-3.313-5.028-3.318-5.15 0Zm42.358-1.429c-1.267 16.896-1.288 33.891-1.382 50.829s-.178 33.719-.159 50.579l.016 14.202c.005 4.863.567 9.633 1.174 14.451.441 3.504 5.02 3.511 5.463 0 .531-4.213 1.167-8.452 1.172-12.707l.014-12.707c.009-8.471.048-16.943.002-25.414-.093-16.854.065-33.732-.39-50.579-.258-9.564-.433-19.112-1.148-28.653-.229-3.059-4.53-3.065-4.76 0Zm43.839-2.859c-.43 17.119-.619 34.229-.755 51.353l-.408 51.353c-.077 9.65-.257 19.286.469 28.917.144 1.908 1.525 3.542 3.542 3.542 1.805 0 3.687-1.624 3.542-3.542l-.225-2.991c-.135-1.786-1.428-3.317-3.317-3.317-1.907 0-3.181 1.523-3.317 3.317l-.225 2.991h7.084c.645-8.555.563-17.104.495-25.676l-.204-25.676-.408-51.353c-.077-9.642-.334-19.278-.577-28.917-.092-3.665-5.605-3.671-5.697 0Zm46.606 2.859c-.591 16.701-.754 33.397-.947 50.107s-.235 33.402-.248 50.107c-.008 9.473-.288 18.976.571 28.419.388 4.26 6.245 4.269 6.633 0 .762-8.375.58-16.776.573-25.178l-.02-24.929c-.013-16.703-.289-33.405-.482-50.107-.11-9.481-.361-18.943-.696-28.419-.123-3.463-5.262-3.469-5.385 0Zm52.363 6.432c-.666 8.066-.706 16.143-.866 24.233s-.147 16.157-.211 24.233a8336 8336 0 0 0-.257 47.967c-.02 9.006-.677 18.354 1.236 27.197.555 2.567 4.637 2.569 5.192 0 .449-2.078.862-4.082.959-6.212.094-2.082.202-4.163.283-6.246.155-3.986.009-8.003 0-11.992-.018-8.078-.009-16.156-.053-24.233-.087-15.989-.254-31.978-.381-47.967-.071-8.994-.167-18.019-.907-26.981-.265-3.209-4.729-3.215-4.994 0Zm45.276 10.057c-1.07 8.283-2.116 16.546-2.888 24.863l-2.261 24.365c-1.506 16.226-2.679 32.488-3.999 48.731l-.566 6.962c-.181 2.22-.762 4.878-.12 7.052.767 2.596 4.045 4.434 6.286 2.259 1.542-1.497 1.235-4.228-.936-4.88-1.338-.402-2.561.689-2.618 1.994l-.007.167.3-1.107-.088.126.827-.827 2.243.286.783 1.343c.045.151-.124 1.121.042.335.124-.585.182-1.181.248-1.774.093-.828.182-1.655.245-2.486.146-1.906.283-3.812.425-5.718l.813-10.94 1.645-22.128c1.084-14.58 2.019-29.166 2.936-43.758.521-8.287.762-16.562.982-24.863.031-1.16-1.008-2.146-2.146-2.146-1.283 0-1.997.991-2.146 2.146Zm32.337 8.964c-1.035 3.445-1.264 7.1-1.46 10.681-.19 3.466-.391 6.93-.414 10.402a834 834 0 0 0 .125 21.046c.261 14.11 1.067 28.205 2.186 42.272a837 837 0 0 0 1.577 17.505c.221 2.193.349 4.416.991 6.534 1.102 3.633 6.182 2.778 6.438-.871.245-3.484-.532-7.124-.896-10.59a838 838 0 0 1-2.695-31.349c-.939-14.006-1.67-28.037-2.046-42.07-.106-3.968-.288-7.923-.478-11.888-.188-3.904-.289-7.882-1.296-11.672-.272-1.024-1.737-.98-2.032 0m31.742 10.994c-.07 12.203-.352 24.404-.541 36.605q-.282 18.181-1.1 36.345c-.31 6.883-.612 13.766-.998 20.645-.101 1.811 1.615 3.356 3.356 3.356 1.901 0 3.254-1.539 3.356-3.356a1043 1043 0 0 0 1.411-36.574c.253-12.11.456-24.244.113-36.354q-.293-10.337-.758-20.668c-.139-3.096-4.82-3.132-4.838 0Zm33.175 15.009c-.106 10.75-.58 21.485-.939 32.227a668 668 0 0 1-1.831 31.939c-.242 2.965-.449 5.932-.699 8.896-.124 1.475-.334 2.966-.364 4.444-.032 1.559.046 3.129.062 4.688.028 2.78 4.366 3.546 4.982.674.596-2.777 1.113-5.494 1.376-8.325q.367-3.95.688-7.906c.434-5.351.711-10.718.961-16.08.501-10.732.811-21.471.538-32.213a680 680 0 0 0-.716-18.345c-.136-2.593-4.032-2.63-4.058 0Zm28.98 14.307c.317 8.824.2 17.726-.183 26.547-.378 8.731-1.164 17.505-2.433 26.152a222 222 0 0 1-1.17 7.154c-.229 1.267-.508 2.529-.718 3.799-.217 1.32-.588 3.038-.093 4.301.667 1.704 2.726 2.519 4.167 1.1 1.614-1.589 1.869-4.515 2.264-6.652q.615-3.327 1.128-6.671a235 235 0 0 0 1.705-13.747c.42-4.486.576-8.999.633-13.503s.107-9.05-.269-13.53c-.432-5.144-1.094-10.275-1.891-15.375-.28-1.788-3.206-1.356-3.142.425Zm22.833 10.679c.806 4.867 1.498 9.748 2.301 14.615.782 4.736 1.453 9.501 2.072 14.26a247 247 0 0 1 1.858 21.859c.101 2.51-.045 5.111.324 7.594.195 1.31.272 2.651 1.305 3.619 1.07 1.003 2.794 1.262 3.99.338 2.435-1.879.265-6.029-2.676-4.512-2.124 1.096-.898 3.964 1.123 4.144l.145.013-1.956-1.122.059.097-.314-1.16-.01.148.32-1.181.552-.523 1.914-.25-.156-.036 1.117.651-.166-.186.674 1.156c.099.498.076-.171.089-.35.036-.484.136-.964.184-1.447.102-1.037.018-2.094-.017-3.136q-.1-3.015-.275-6.026a247 247 0 0 0-.994-12.025c-.882-8.204-2.183-16.294-4.082-24.325-1.059-4.479-2.508-8.801-4.068-13.129-.757-2.1-3.671-1.259-3.311.913Zm26.167 5.746c.251 8.981.235 17.978.072 26.961a434 434 0 0 1-.822 20.021c-.142 2.222-.908 5.221.316 7.203.799 1.293 2.889 1.799 3.983.513 1.636-1.922 1.364-4.815 1.521-7.222q.225-3.457.396-6.916.329-6.672.453-13.352c.169-9.08-.085-18.143-.614-27.208-.198-3.383-5.403-3.438-5.307 0Zm24.35-3.564c.2 9.405.174 18.87-.215 28.27a288 288 0 0 1-1.621 20.853c-.13 1.139-.218 2.28-.312 3.422-.106 1.283-.352 2.621-.251 3.905.211 2.685 3.767 3.221 4.675.633.425-1.213.517-2.575.709-3.843.183-1.207.367-2.414.494-3.628.238-2.281.417-4.569.585-6.856q.522-7.112.69-14.24c.168-7.128.108-9.51-.014-14.264s-.634-9.522-1.151-14.252c-.245-2.24-3.64-2.362-3.59 0Zm27.622-.02c-1.079 9.985-2.034 19.989-2.455 30.025a699 699 0 0 0-.584 22.365c-.025 2.423-.006 5.611 1.929 7.4.68.629 1.691.642 2.373 0 1.851-1.742 1.929-4.799 1.923-7.152a703 703 0 0 1 .298-22.614c.292-10.01.486-20.022.966-30.025.058-1.201-1.063-2.224-2.224-2.224-1.31 0-2.094 1.025-2.224 2.224Zm-496.355-67.815c1.304 30.103 3.272 60.143 6.021 90.149q.567 6.185 1.154 12.368c.428 4.506.381 9.372 2.203 13.563 1.15 2.646 5.567 1.871 6.133-.802.819-3.863-.016-7.892-.414-11.772q-.57-5.565-1.124-11.131-1.119-11.256-2.169-22.518a3961 3961 0 0 0-4.408-44.577q-1.322-12.636-2.559-25.28c-.127-1.3-1.021-2.419-2.419-2.419-1.267 0-2.476 1.108-2.419 2.419Zm-40.089 2.078c-.413 15.746-.719 31.495-1.196 47.24s-1.174 31.485-1.904 47.221q-.611 13.168-1.401 26.326c-.127 2.123 1.957 4.152 4.058 4.058 2.285-.102 3.949-1.783 4.058-4.058 1.504-31.465 2.044-62.933 1.754-94.432-.081-8.794-.388-17.57-.765-26.355-.127-2.953-4.526-2.974-4.604 0m-40.649 14.242c-1.115 14.131-1.982 28.257-2.41 42.426s-.627 28.302-.597 42.456c.008 3.972.029 7.945.079 11.917.024 1.903.086 3.807.139 5.709.069 2.421-.263 5.103 1.814 6.785 1.282 1.038 2.857 1.148 4.139 0 1.873-1.678 1.632-3.761 1.587-6.041-.036-1.82-.059-3.641-.097-5.461-.072-3.476-.181-6.951-.253-10.427q-.216-10.551-.264-21.105c-.063-14.155.286-28.296.447-42.448q.136-11.908.487-23.812c.097-3.296-4.819-3.216-5.072 0Zm-44.873 12.109c-1.679 13.22-3.508 26.414-4.989 39.658s-2.954 26.432-4.346 39.658l-1.148 10.906-.574 5.453-.313 2.974c-.119 1.119-.057.227-.005.035-.394 1.452.912-.767.294-.248l1.579-.92 1.385.007 1.491.869q-1.13-.943.475 2.258l-.772 1.324.09-.072-1.302.759.148-.022c1.095-.161 1.949-1.401 2.068-2.4.145-1.219-.399-2.177-1.378-2.877-1.891-1.352-4.352.053-4.951 2.059-.63 2.108.591 4.429 2.746 4.995 2.388.627 4.906-1.059 5.575-3.372.531-1.834.493-3.973.67-5.865l2.139-22.803c.728-7.763 1.396-15.531 2.074-23.299.663-7.596 1.465-15.195 1.953-22.803a3341 3341 0 0 1 1.773-26.273c.091-1.263-1.141-2.341-2.341-2.341-1.398 0-2.181 1.081-2.341 2.341Zm-45.227 2.924c-1.308 11.644-2.642 23.286-3.925 34.933-1.28 11.624-2.237 23.292-3.35 34.933l-.948 9.91-.45 4.707c-.204 2.129-.54 3.988.582 5.945 1.016 1.773 3.971 2.422 5.393.695.729-.885 1.368-1.717 1.527-2.895.112-.831.158-1.67.222-2.506l.34-4.46.661-8.671 1.341-17.59c.894-11.724 1.722-23.443 2.421-35.181l1.18-19.82c.08-1.348-1.205-2.497-2.497-2.497-1.475 0-2.346 1.151-2.497 2.497m-51.789 11.465a437 437 0 0 1-.234 16.308c-.172 5.354-.155 10.714-.321 16.069-.335 10.793-.979 21.589-1.863 32.351a527 527 0 0 1-.731 8.131c-.271 2.778-1.451 6.733.782 8.965 1.335 1.335 3.281 1.237 4.641 0 1.398-1.272 1.541-3.018 1.701-4.781q.368-4.06.674-8.125a456 456 0 0 0 1.289-32.338c.025-6.09.045-12.209-.243-18.294s-.864-12.203-1.404-18.286c-.24-2.705-4.307-2.808-4.292 0Zm-43.899 1.422c-.676 10.918-1.235 21.842-1.274 32.783s.033 21.857.515 32.768a918 918 0 0 0 .689 13.392c.112 1.91-.016 3.987 1.121 5.62 1.316 1.889 4.448 2.347 5.66 0 1.363-2.64.581-5.97.401-8.843q-.256-4.09-.477-8.184c-.294-5.459-.598-10.918-.862-16.378-.529-10.922-.761-21.853-1.156-32.779q-.33-9.186-.481-18.377c-.044-2.68-3.972-2.642-4.136 0Zm-40.109 12.265c0 .225-.135.336-.175.558-.076.422.004.781.019 1.197.025.693-.209 1.367-.344 2.041-.492 2.467-1.043 4.915-1.342 7.416a222 222 0 0 0-1.282 14.767c-.508 9.718.055 19.606 1.026 29.278.276 2.753.611 5.499.979 8.241.197 1.466.396 2.932.632 4.393.262 1.62.412 3.267 1.323 4.68.86 1.333 2.293 2.077 3.888 1.863 1.451-.195 2.92-1.291 3.244-2.795.61-2.83-.423-6.007-.89-8.833a216 216 0 0 1-1.019-6.827 228 228 0 0 1-1.45-15.218c-.626-10.179-.417-20.332-.244-30.517.036-2.136.904-13.17-4.057-10.785-.193.093-.309.333-.309.539ZM95.1 604.683c-.531 9.019-.973 18.039-1.254 27.069-.263 8.459-.942 17.285 2.065 25.376l.852-3.223c.418-.455.093-.118-.222.144-.346.287-.695.607-.885 1.028l2.361-1.354.338.041c-1.169-.411-2.736.47-2.976 1.69-.033.168-.196 2.333-.105 1.121-.103 1.385 1.071 2.753 2.36 3.1 1.392.375 2.844 0 3.813-1.084.736-.825 1.284-2.106.852-3.223-2.946-7.602-2.513-16.099-2.624-24.112-.123-8.857-.239-17.715-.283-26.573-.014-2.781-4.131-2.741-4.292 0"/><path fill="#50b3ff" d="M631.006 190.484c-15.516 4.475-31.133 8.579-46.636 13.094-15.344 4.469-30.705 8.885-46.025 13.433l-46.446 13.786c-3.789 1.125-7.589 2.16-11.193 3.813-3.745 1.718-6.765 4.585-8.965 8.044-2.024 3.182-3.318 6.915-4.37 10.517-1.123 3.847-1.787 7.775-2.28 11.747-1.848 14.891.829 30.028 3.622 44.628 2.871 15.004 5.766 30.027 9.562 44.83a250 250 0 0 0 6.61 21.707c1.366 3.842 2.806 7.67 4.426 11.412 1.736 4.011 4.603 7.027 8.816 8.402 3.564 1.163 7.733.999 11.451 1.079 3.886.083 7.775.038 11.658-.135a184 184 0 0 0 24.719-2.793c7.604-1.385 15.067-3.382 22.576-5.193 3.743-.903 7.5-1.752 11.291-2.434q1.42-.255 2.847-.478c.473-.073.952-.166 1.429-.212-.188.018-1.341.128-.224.041.569-.044 2.254-.422 2.733-.072l-.693-.1q.443.078.875.209.982.346-.246-.122.363.188.706.41c1.177.62-.859-.871.099.068.297.291.611.562.905.856.626.626 1.22 1.284 1.822 1.932l4.06 4.374 8.119 8.748c5.414 5.833 10.922 11.56 16.466 17.268 2.77 2.853 5.536 5.709 8.335 8.532 3.619 3.651 9.968-.061 8.6-5.006a392 392 0 0 0-3.934-13.321c-1.392-4.419-2.706-8.855-4.067-13.284a388 388 0 0 0-9.103-26.226l-3.289 5.792c4.275-1.631 8.62-3.055 12.89-4.702l12.823-4.947 25.878-9.983c3.73-1.439 7.435-2.97 11.235-4.218 3.172-1.042 6.515-2.066 9.308-3.944 3.442-2.314 5.837-5.459 7.045-9.446 1.054-3.479 1.177-7.287.954-10.893-.111-1.801-.314-3.594-.551-5.381-.071-.54-.121-1.094-.219-1.63.058.317.209 1.543-.004-.043a96 96 0 0 0-.268-1.853q-.2-1.29-.403-2.58-.18-1.144-.35-2.289l-.097-.679c-.091-.616.084.661.082.615-.02-.424-.107-.853-.152-1.275-.223-2.088-.4-4.182-.613-6.271-.927-9.092-2.036-18.164-3.174-27.231-1.128-8.985-2.285-17.966-3.32-26.962-.848-7.366-1.026-14.725-1.441-22.12-.419-7.472-1.178-15.201-3.977-22.206-3.05-7.635-8.344-15.411-17.073-16.917-2.506-.432-4.857-.424-7.344.184-2.817.689-4.773 4.026-3.87 6.816.947 2.925 3.797 4.608 6.816 3.87.178-.043.376-.069.548-.127.595-.199-.538.134-.555.05 0-.003 1.129-.063 1.287-.061.227.003 1.426.127.546-.002s.471.115.713.177c.422.109.824.272 1.241.392.566.162-.426-.176-.455-.204.11.104.373.175.51.243a15 15 0 0 1 1.641.951c.138.092.804.624.217.122-.602-.516.329.282.478.415q.501.445.965.93c.264.276.512.566.763.854.093.107.522.615.037.038-.504-.598.032.08.123.214a32.4 32.4 0 0 1 2.561 4.546c.081.174.154.352.238.525.269.553-.173-.422-.177-.436.095.362.292.721.424 1.072q.476 1.26.87 2.55a50 50 0 0 1 1.219 4.893q.248 1.25.445 2.508c.061.389.116.779.174 1.168.116.775-.128-1.071-.041-.29.029.262.064.524.095.786.198 1.712.346 3.43.465 5.149.474 6.903.448 13.839 1.224 20.721.969 8.591 2.075 17.167 3.172 25.743 1.107 8.657 2.21 17.315 3.176 25.989.46 4.127.8 8.27 1.286 12.394.408 3.454.994 6.886 1.531 10.322.07.445.133.89.198 1.336.154 1.055-.113-.959.013.103.106.897.208 1.793.283 2.694.134 1.62.199 3.25.129 4.875q-.026.629-.083 1.256c-.015.164-.067.366-.053.529.001.013.183-1.132.074-.544-.145.781-.284 1.553-.511 2.317-.093.312-.233.62-.312.934-.13.518.179-.491.226-.51-.057.022-.181.387-.212.446-.184.351-.396.682-.589 1.027-.079.142-.448.579.027.004.508-.615.009-.017-.102.101-.221.235-.437.471-.672.693-.117.11-.241.212-.357.322-.653.622.204-.236.304-.219-.278-.045-1.477.953-1.781 1.118a20 20 0 0 1-1.025.518c-.149.07-.305.131-.451.206-.505.262.492-.201.481-.197-.74.241-1.46.57-2.195.828-3.263 1.146-6.49 2.318-9.71 3.585l-24.432 9.617c-8.458 3.329-17.006 6.494-25.351 10.094l-2.74 1.182-.913.394c.021-.009-.73.305-.352.152s-.383.146-.361.137c-.31.124-.618.252-.928.375-2.149.855-4.325 3.228-3.289 5.792a389 389 0 0 1 9.489 26.12c1.428 4.421 2.729 8.838 3.803 13.357s2.059 9.041 2.97 13.587l8.6-5.006c-10.269-11.967-20.835-23.654-31.49-35.276-2.486-2.711-4.853-5.77-7.712-8.1-1.791-1.459-3.754-2.645-6.044-3.124-2.784-.582-5.381-.272-8.158.131-7.469 1.084-14.787 2.973-22.097 4.814-7.436 1.873-14.89 3.575-22.477 4.719q-.6.09-1.201.177c-.232.033-1.855.266-.367.057-.963.135-1.929.248-2.895.36a176.5 176.5 0 0 1-25.712 1.094c-.318-.01-2.903.122-3.039-.138.123.235 1.256.21.135.027a14 14 0 0 1-.969-.189c-.1-.024-1.115-.233-1.125-.325l.656.293a8 8 0 0 1-.683-.352c-1.079-.463.707.866-.072-.023l-.273-.274q-.612-.705.18.274c-.132.001-1.178-1.851-1.129-2.05l.279.668a38 38 0 0 1-.289-.731q-.24-.624-.472-1.25a226 226 0 0 1-2.82-8.023 256 256 0 0 1-3.31-10.843c-4.074-14.448-7.27-29.091-10.144-43.82-1.394-7.147-2.822-14.294-4.018-21.477a240 240 0 0 1-.781-5c-.066-.453-.151-.91-.193-1.366.161 1.737.023.165-.018-.164a163 163 0 0 1-.374-3.189c-.371-3.474-.622-6.962-.691-10.456-.071-3.6.05-7.206.435-10.788.045-.415.033-.935.156-1.334-.485 1.583-.045.339.023-.107q.185-1.216.415-2.424a62 62 0 0 1 1.29-5.448 56 56 0 0 1 1.553-4.671l.148-.381q.383-.944-.165.364c-.059-.081.458-1.01.51-1.119a23 23 0 0 1 1.361-2.511c.145-.228.3-.449.451-.674.775-1.162-.958.984.022-.013.284-.289.544-.599.838-.88l.298-.277q.767-.648-.284.173c.365-.553 1.532-1.021 2.106-1.327q.366-.195.74-.375t.755-.348q-1.247.517-.312.141c7.251-2.623 14.689-4.783 22.034-7.129l22.376-7.145c15.079-4.815 30.131-9.71 45.185-14.602 7.447-2.42 14.933-4.747 22.332-7.307 7.564-2.617 15.11-5.301 22.715-7.795l10.927-3.582c1.862-.61 3.072-2.509 2.534-4.464-.516-1.878-2.574-3.08-4.464-2.534Z"/><path fill="#50b3ff" d="M537.799 339.651c2.55.973 5.089 1.978 7.725 2.693q3.822 1.037 7.67 1.973c5.204 1.267 10.442 2.416 15.71 3.387 10.47 1.932 21.089 3.416 31.713 4.171 3.06.217 6.171.379 9.214-.074 1.343-.2 2.677-.467 3.986-.831a21 21 0 0 0 2.164-.719c1.056-.423 1.655-1.034 2.307-1.939 1.045-1.45-.103-3.354-1.562-3.84-1.445-.481-2.749-.074-4.194.126-1.054.146-2.126.199-3.189.224-2.531.058-5.042.164-7.575.053-5.132-.224-10.263-.729-15.367-1.299-10.121-1.13-20.195-2.791-30.156-4.908a305 305 0 0 1-8.432-1.917c-2.89-.7-5.808-1.198-8.727-1.765-3.085-.599-4.186 3.558-1.286 4.665Zm93.034-71.997c1.59 10.835.44 21.784-.529 32.625-.486 5.439-.888 10.867-1.002 16.329s.491 10.94.158 16.378a18.7 18.7 0 0 1-.543 3.585c-.311 1.2-.584 1.932-1.04 2.799-.999 1.898-1.999 3.782-3.693 5.016-2.13 1.551-.947 5.135 1.864 4.422 5.096-1.293 8.146-5.524 9.362-10.446 1.385-5.607.529-11.436.415-17.126-.232-11.53.808-23.056.751-34.588-.033-6.526-.307-13.14-1.144-19.616-.432-3.34-5.096-2.769-4.599.622m10.675 16.518c.085 6.713.044 13.442.26 20.153.107 3.318.311 6.636.467 9.952.078 1.654.084 3.331.276 4.976.198 1.7.231 3.577 1.07 5.096.576 1.044 2.434 1.196 2.965 0 .686-1.545.639-3.18.704-4.847.065-1.655-.059-3.321-.12-4.976-.124-3.399-.2-6.804-.374-10.201-.345-6.721-.948-13.439-1.425-20.153-.172-2.427-3.855-2.488-3.824 0Zm-61.297-13.384c-3.076.009-4.772 2.442-5.685 5.078-.416 1.201-.789 2.384-1.331 3.538-.691 1.472-1.445 2.92-1.984 4.458-.999 2.853-1.164 5.964-1.313 8.959-.076 1.531-.052 3.082.398 4.562.461 1.519 1.27 2.911 2.113 4.244 1.527 2.414 3.402 4.65 6.529 4.528 3.027-.119 5.33-2.269 6.838-4.722 3.051-4.962 4.251-11.17 3.53-16.924s-3.518-13.232-10.179-13.977c-2.598-.29-2.855 3.625-.591 4.369 3.677 1.207 5.114 5.086 5.875 8.575.916 4.201.505 8.633-.984 12.652-.67 1.808-1.623 4.056-3.263 5.189-1.76 1.216-2.899.008-3.881-1.466-1.293-1.94-2.335-3.718-2.327-6.11.007-2.353.106-4.796.57-7.106.527-2.624 1.851-4.914 2.738-7.414.665-1.874.983-5.31 3.29-5.903 1.409-.362 1.111-2.534-.342-2.529Z"/><path fill="#50b3ff" d="M557.101 291.208c7.288.803 14.75.41 22.051-.137 7.343-.55 14.67-1.448 21.881-2.958 2.557-.536 1.472-4.433-1.079-3.913-7.102 1.448-14.299 2.266-21.527 2.747-7.222.481-14.526.516-21.679 1.654-1.597.254-1.004 2.456.353 2.606Zm192.851 19.758c-.645 10.892-2.498 21.566-5.41 32.093-1.467 5.302-3.108 10.568-4.99 15.739a187 187 0 0 1-2.971 7.614c-.478 1.155.297-.684-.195.462l-.299.697q-.452 1.044-.915 2.082a183 183 0 0 1-1.747 3.788c-4.736 9.963-10.421 19.418-16.823 28.396a178 178 0 0 1-3.383 4.589c-.087.114-.864 1.12-.214.283l-.7.897a178 178 0 0 1-5.309 6.441 175 175 0 0 1-11.226 11.832 173 173 0 0 1-10.515 9.303 173 173 0 0 1-2.522 2.013c-.993.777.411-.306-.364.284-4.933 3.755-10.038 7.282-15.368 10.45-1.74 1.034-2.665 3.019-2.399 5.006.242 1.804 1.664 3.846 3.599 4.177 23.314 3.981 46.045 11.094 68.371 18.776 22.456 7.726 44.658 16.279 67.463 22.952 6.303 1.844 13.186 4.388 19.211.309 2.501-1.693 4.605-3.883 6.719-6.019q2.79-2.82 5.484-5.73c7.273-7.857 14.008-16.215 20.252-24.911a249.1 249.1 0 0 0 39.447-85.526 244 244 0 0 0 4.528-23.15 333 333 0 0 0 .883-6.575q.051-.404.098-.807.088-.735.009-.143-.147 1.056.142-1.068.51-3.837.901-7.686c.231-2.27-1.758-4.268-3.74-4.912-17.389-5.65-34.992-10.541-52.758-14.857a835 835 0 0 0-53.65-11.186 805 805 0 0 0-30.537-4.748c-1.536-.208-2.841-.264-4.239.555-1.141.668-2.23 1.976-2.528 3.288-.588 2.582.792 6.355 3.843 6.768l1.941.261-.265-.036 1.675.229q1.675.23 3.349.467 3.468.491 6.931 1.011 6.808 1.023 13.597 2.157a836 836 0 0 1 80.198 17.485 1178 1178 0 0 1 29.735 8.431l-3.74-4.912c-.199 2.567-.482 5.123-.714 7.686-.119 1.318.109-.739.002.083q-.067.504-.138 1.006-.112.805-.229 1.609a243 243 0 0 1-3.599 19.166 247 247 0 0 1-8.654 29.231 248 248 0 0 1-4.144 10.616c-.023.056-.546 1.292-.197.473s-.178.414-.202.47q-.4.934-.808 1.865c-2.067 4.72-4.229 9.396-6.554 13.995a249.4 249.4 0 0 1-19.79 32.669 240 240 0 0 1-3.369 4.589c-.238.317-.849 1.503-1.232 1.618.339-.102.573-.736.121-.157l-.625.801q-.564.72-1.133 1.436a240 240 0 0 1-17.98 20.174q-1.364 1.37-2.752 2.713c-.396.383-.793.765-1.203 1.134-.257.231-.527.447-.785.677q-.482.394.33-.254a9 9 0 0 1-.508.345c-.286.184-.586.338-.877.512-.742.445.061-.266.241-.094-.11-.106-.645.324-.783.22l.635-.066a6 6 0 0 1-.659.033c-.293.005-.842.084-1.102-.045.1.049 1.313.258.188.005a45 45 0 0 1-2.181-.538c-22.426-6.24-44.289-14.408-66.278-21.995-21.957-7.576-44.09-14.644-67.005-18.7q-4.322-.764-8.666-1.389l1.2 9.182c19.509-12.299 36.345-28.163 49.898-46.813 6.552-9.015 12.164-18.706 16.865-28.807 4.823-10.363 8.931-21.239 11.557-32.378 2.902-12.31 4.495-24.998 4.786-37.642.078-3.384-5.031-3.337-5.228 0Z"/><path fill="#50b3ff" d="M781.337 342.146c.521 2.172-.073 4.33.912 6.447 1.072 2.304 3.464 3.626 5.898 4.013 2.869.456 5.797.595 8.696.41a47 47 0 0 0 4.559-.533c.596-.097 2.075-.639 2.575-.426.32.136.721.719.976.97a13 13 0 0 0 1.668 1.365c1.079.755 2.316 1.275 3.545 1.73 2.537.94 5.221 1.551 7.829 2.256a531 531 0 0 0 31.413 7.469c1.716.353 3.53.907 5.29.821 2.457-.121 3.934-3.792 1.359-5.017-2.634-1.253-5.825-1.539-8.667-2.162a529 529 0 0 1-24.523-5.992 479 479 0 0 1-8.419-2.346c-1.932-.559-3.888-1.095-5.341-2.554-1.03-1.034-2.049-2.011-3.508-2.402s-2.957-.092-4.402.214a36.3 36.3 0 0 1-7.668.801c-1.375-.004-2.992-.076-4.206-.239-.751-.101-1.933-.176-2.452-.692-.705-.702-1.038-2.119-1.451-3.018-.502-1.094-1.184-1.902-2.192-2.569-.98-.648-2.14.419-1.892 1.454Zm-.876 30.871c1.442-.591 2.599.125 3.863.886 1.63.983 3.163 2.041 4.943 2.749 1.953.777 4.067 1.004 6.14 1.233 2.027.224 4.014.549 6.005.999 8.774 1.984 17.452 4.519 26.154 6.799l7.436 1.948 3.838 1.005c1.558.408 3.001.6 4.266-.607.567-.541.813-1.45.582-2.202-.807-2.626-4.184-2.822-6.475-3.418l-6.72-1.747-13.68-3.556c-4.56-1.185-9.105-2.473-13.698-3.517a48 48 0 0 0-6.632-1.013c-1.954-.163-3.979-.233-5.824-.973-1.87-.75-3.472-2.071-5.317-2.889-2.299-1.019-4.443-1.226-6.775-.191-2.516 1.116-.689 5.552 1.894 4.493Zm-3.837 18.722c6.297 1.949 12.524 4.094 18.829 6.017q4.67 1.423 9.303 2.959c3.049 1.01 6.695 2.903 9.919 1.935 1.153-.346 2.07-1.928 1.236-3.038-.524-.697-1.015-1.349-1.766-1.827s-1.651-.73-2.481-1.038c-1.602-.594-3.251-1.041-4.893-1.509a406 406 0 0 0-9.649-2.62c-6.49-1.678-13.066-2.795-19.689-3.814-1.894-.292-2.726 2.341-.809 2.935m-7.325 22.204 2.681.801c.449.134.876.234 1.341.299l1.423.201q.505.159 1.011.045.507-.023.943-.301a2.63 2.63 0 0 0 1.038-1.213c.213-.504.301-1.116.128-1.651-.193-.597-.576-1.237-1.166-1.516-1.035-.489-2.054-1.014-3.153-1.343l-2.731-.816c-.699-.209-1.57-.078-2.195.287-.591.346-1.154 1.023-1.309 1.702-.166.729-.13 1.548.287 2.195.407.632.971 1.091 1.702 1.309Zm9.872 44.568c3.366-.163 6.637-1.076 9.57-2.747a22 22 0 0 0 3.896-2.851 18 18 0 0 0 1.563-1.609c.393-.46 1.111-1.512 1.333-1.683 1.151-.882 1.886-2.127 1.475-3.624-.377-1.37-1.683-2.338-3.094-2.356-2.687-.034-5.261 2.258-6.507 4.484-1.303 2.327-1.686 5.243-.691 7.758 2.161 5.463 8.911 7.92 13.994 4.73h-3.8c2.182 1.618 4.501 3.046 6.996 4.128 2.822 1.223 6.371 2.958 9.255 1.053 1.106-.731 1.684-2.264.91-3.47-1.589-2.475-4.514-2.86-6.721-3.887a30 30 0 0 1-3.123-1.686c-1.185-.733-1.755-1.158-2.756-2.049-1.321-1.177-2.994-1.386-4.561-.589q-.583.29.042-.008-.222.075-.45.123-.429.091.255-.013a5 5 0 0 1-.467.021q-.235.006-.469-.012.783.13.112.006-.452-.139-.905-.271c.872.253.009-.01-.191-.116-.19-.101-.891-.66-.234-.073a8 8 0 0 1-.665-.655c.767.866-.251-.65-.002-.068.293.686-.307-.965-.077-.217q.042.465-.005-.105a6 6 0 0 1 .003-.624c.012-.253.252-1.072.017-.234.085-.303.153-.606.256-.906-.255.742.118-.144.172-.26.299-.629-.276.16.2-.282.129-.12.726-.585.254-.273.495-.326.976-.628 1.426-1.026l-5.363-3.122q.217-.1.025.143-.116.256-.242.508a4.4 4.4 0 0 1-.405.637c-.377.494-.83.95-1.272 1.386a15.3 15.3 0 0 1-2.826 2.202c-2.103 1.278-4.469 2.086-6.929 2.253-1.451.098-2.692 1.167-2.692 2.692 0 1.404 1.233 2.763 2.692 2.692Z"/><path fill="#50b3ff" d="M853.558 239.649c-8.852.515-17.69.875-26.558.591-4.456-.143-8.909-.437-13.337-.96q-.733-.089-1.466-.182c-.718-.09.61.094-.1-.015-.275-.042-.551-.078-.826-.119a111 111 0 0 1-3.288-.537 98 98 0 0 1-6.288-1.335c-4.196-1.039-8.381-2.316-12.4-3.915-.335-.133-1.422-.598-.524-.205-.505-.221-1.01-.44-1.512-.669a68 68 0 0 1-2.984-1.452 65 65 0 0 1-5.606-3.263q-1.125-.734-2.218-1.514c-.416-.297-.823-.605-1.237-.905-.2-.145-.791-.578.135.112-.255-.19-.501-.393-.749-.591a68 68 0 0 1-4.449-3.895 75 75 0 0 1-5.995-6.433 85 85 0 0 1-.968-1.191c-.116-.146-.34-.526-.475-.603.243.138.56.738.131.165a88 88 0 0 1-6.599-10.18 92 92 0 0 1-2.734-5.348 96 96 0 0 1-1.201-2.652c-.554-1.273.324.805-.204-.477-.221-.538-.433-1.079-.645-1.62-1.474-3.745-2.693-7.593-3.699-11.489a122 122 0 0 1-1.663-7.402 129 129 0 0 1-1.021-6.073c-.024-.163-.211-1.485-.093-.644.103.733-.007-.059-.021-.175l-.117-.939a148 148 0 0 1-.578-5.65 175 175 0 0 1-.456-7.336 287 287 0 0 1-.227-14.987c.052-4.921.238-9.84.499-14.755.062-1.159.113-2.32.201-3.477.018-.242.216-1.09.009-.282-.212.83.037-.055.093-.261.021-.08.216-.533.185-.594q-.438.996-.123.463.35-.539-.31.412c.149-.184.597-.406-.008-.06-.722.413.023-.003.204-.114.221-.136.466-.238.684-.377.511-.325-.433.17-.48.181.967-.227 1.872-.649 2.862-.838 1.283-.245-1.004.057.02-.012.459-.031.914-.062 1.375-.065q.603-.003 1.204.037c.229.015.458.042.687.058.719.05-1.33-.251-.314-.038.857.18 1.704.356 2.541.619.393.123.777.266 1.165.403.901.317-.262-.112-.368-.17.255.142.546.245.81.372q1.214.587 2.357 1.305.613.386 1.204.805c.19.135.386.315.586.429-.47-.267-.779-.619-.142-.089a25.4 25.4 0 0 1 3.343 3.351c.763.919-.011-.162-.091-.14.195-.054 1.356 1.998 1.504 2.247.562.948 1.066 1.93 1.525 2.932.079.173.448 1.016.142.3s.047.131.116.309q.268.69.51 1.39.55 1.603.975 3.246c.425 1.643.529 2.209.74 3.325q.14.735.259 1.475c.054.328.441 2.361.139.843.43 2.157.47 4.472.601 6.664.134 2.223.216 4.448.312 6.673.127 2.923 2.485 5.74 5.601 5.601 3.152-.141 5.453-2.461 5.601-5.601 1.406-29.918-6.282-59.223-11.936-88.347a480 480 0 0 1-1.986-10.836c-.144-.843-.29-1.686-.419-2.532-.055-.364-.119-1.515.009.112-.018-.223-.054-.447-.079-.67a36 36 0 0 1-.232-4.087q.002-1.016.08-2.028c.025-.317.115-.678.1-.994.06 1.287-.131.798-.018.293.129-.575.238-1.15.406-1.717.089-.301.199-.594.297-.892.318-.974-.634 1.12.013.015.256-.437.688-.954.866-1.418-.38.994-.546.664-.068.163.122-.127.62-.471.663-.627-.028.1-1.106.736-.349.275.271-.165.548-.329.816-.499 1.021-.647-1.078.244.08-.048.176-.044 1.301-.48 1.425-.345.097.106-1.226.043-.331.084.363.017.745.015 1.108.015 1.245-.001-1.159-.315.053.006.365.097.735.165 1.097.273.304.09.597.209.898.305.736.236-1.129-.624-.058-.007.331.191.676.354 1.004.552q.327.197.642.413.713.512-.171-.157c.481.19 1.099.984 1.446 1.349.28.295.538.607.809.911.894 1.006-.579-.928.148.205.889 1.387 1.727 2.765 2.433 4.259.176.373.341.751.512 1.126.108.238.465.895-.056-.139.365.725.614 1.539.901 2.298a157 157 0 0 1 4.947 15.519 158 158 0 0 1 3.595 17.789c.025.175.229 1.718.062.429a164 164 0 0 1 .537 4.625c.813 8.033.99 16.118.591 24.181-.13 2.628 2.114 4.864 4.588 5.197 2.569.345 5.106-1.231 5.805-3.79 3.471-12.694 2.337-25.827.046-38.614-1.13-6.309-2.543-12.562-3.813-18.843a244 244 0 0 1-1.701-9.178c-.124-.762-.238-1.526-.356-2.289-.23-1.497.079.879.005.08-.025-.276-.067-.551-.097-.827a39 39 0 0 1-.221-3.561c-.015-1.078.02-2.158.122-3.232l.034-.335q.1-.843-.051.35c.034-.019.114-.677.11-.655.118-.641.265-1.278.45-1.903q.09-.307.193-.61l.105-.3q.292-.76-.16.33c.277-.258.433-.909.627-1.245.128-.221.275-.431.403-.651.415-.714-.13.232-.249.283.392-.169.925-.99 1.271-1.319.729-.694-.743.354-.154.126.23-.089.458-.301.675-.423.033-.019.529-.336.611-.316l-.54.224q.333-.129.675-.23c.227-.068.458-.116.686-.177 1.142-.306-1.118-.01.066-.021.332-.003 1.56-.229 1.776.021l-.616-.091a12 12 0 0 1 1.415.303c.354.096.695.225 1.045.333.329.102.754.073-.166-.084.5.085 1.212.602 1.637.866.211.131.41.277.62.409.831.52-.644-.58.307.255q.692.608 1.303 1.296c.179.201.729.898.112.084q.245.325.477.66c.856 1.237 1.513 2.562 2.162 3.914-.439-.916-.113-.28-.032-.065.144.385.294.767.432 1.155q.31.876.581 1.765a69 69 0 0 1 1.124 4.198c1.531 6.388 2.778 12.85 3.811 19.336q.42 2.642.789 5.291c-.007-.053.199 1.526.1.752-.111-.876.244 1.832.286 2.141-.029-.216-.129-.989.006.056q.094.723.185 1.447.695 5.548 1.158 11.12c.619 7.429.92 14.88.93 22.334.003 2.569 1.957 4.719 4.463 5.056 2.492.335 4.977-1.196 5.648-3.687 3.69-13.709 4.466-27.981 2.512-42.024-.938-6.741-2.883-13.142-4.527-19.723a62 62 0 0 1-.985-4.742c-.242-1.435.021.609-.033-.267-.023-.38-.078-.76-.105-1.14a27 27 0 0 1-.066-2.748c.012-.422.054-.841.069-1.262.034-.938-.071.223-.059.291-.101-.563.271-1.5.414-2.047q.22-.848.519-1.671c.059-.164.142-.495.251-.653-.754 1.1.076-.101.233-.401q.4-.767.876-1.491c.171-.26.611-1.224.029-.11.089-.171.316-.388.433-.523.405-.467.843-.894 1.299-1.31l.125-.11q.615-.507-.217.153c.055-.199.783-.524.966-.632.237-.139.485-.257.724-.391.969-.541-1.032.278.044-.011.3-.081 1.394-.579 1.622-.415-.294-.212-.978.088-.074.04q.44-.024.881-.013l.348.015q.83.075-.274-.063c.275.115.715.133 1.008.207.334.084.654.204.984.296 1.077.299-.683-.363-.052-.042.573.292 1.142.573 1.688.917q.3.19.592.392c.292.202 1.165.538.158.103.56.242 1.208 1.064 1.627 1.485.442.446.845.913 1.255 1.388.829.959-.575-.832.156.205.145.206.295.41.438.618a34 34 0 0 1 2.314 3.886q.433.852.828 1.723.181.398.358.798c.064.145.623 1.489.17.382a81 81 0 0 1 1.679 4.446c1.025 2.985 1.86 6.037 2.595 9.106.728 3.039 1.48 6.207 1.753 9.326-.016-.181-.147-1.166-.019-.143q.082.645.158 1.29.126 1.078.232 2.158.233 2.384.377 4.775c.874 14.395-.502 28.795-1.876 43.113-.219 2.282 1.854 4.802 4.034 5.299 2.225.507 5.159-.281 6.206-2.525 4.667-10.008 7.256-20.836 7.322-31.901.034-5.639-.797-11.191-1.644-16.752a314 314 0 0 1-.286-1.91q-.067-.478-.137-.955c.161 1.081.029.234.003.014-.173-1.43-.334-2.86-.427-4.297a44 44 0 0 1-.087-4.057 35 35 0 0 1 .104-1.909c.026-.319.067-.636.093-.954.063-.784-.221 1.323.013-.008a23.7 23.7 0 0 1 1.174-4.276c.083-.22.193-.442.263-.664-.162.517-.381.871-.039.154a22 22 0 0 1 1.475-2.623c.129-.196.265-.386.396-.58.466-.691-.199.285-.219.258-.049-.069.926-1.082 1.016-1.178q.526-.562 1.101-1.073c.152-.135.398-.288.516-.439-.076.098-1.044.727-.29.233.375-.245.74-.5 1.128-.724q.29-.167.587-.32a9 9 0 0 1 .451-.219q.56-.258-.523.215c.192.072 1.041-.356 1.277-.421.438-.119.899-.162 1.333-.283-1.44.404-.2.05.371.046a11 11 0 0 1 1.293.059q.628.063-.522-.073c.068-.123 2.661.581 2.834.797-.275-.341-.87-.407-.268-.097.221.114.446.221.665.339q.828.447 1.602.98c.162.112.472.283.614.442-.735-.817-.458-.362-.2-.132.38.34.762.673 1.124 1.031q.613.605 1.167 1.264c.13.155.572.835.171.203-.438-.69.151.239.246.381a22.6 22.6 0 0 1 1.678 2.974c.075.158.465 1.006.167.339s.069.186.133.351q.387 1.013.704 2.048c.729 2.369 1.204 4.808 1.563 7.258.028.192.151 1.137.051.347s.016.154.04.347q.12.98.224 1.961c.152 1.4.291 2.801.43 4.203q.415 4.188.79 8.381c.5 5.592.935 11.189 1.37 16.786a877 877 0 0 1 2.633 67.84c0 5.496-.011 10.997-.247 16.489-.118 2.736-.295 5.47-.568 8.195a106 106 0 0 1-.202 1.862c-.051.438-.183 2.32-.076.672-.089 1.376-.423 2.79-.677 4.145a74 74 0 0 1-1.863 7.705 56 56 0 0 1-1.631 4.707c-.09.228-.185.454-.276.681-.29.722.581-1.321.126-.311a60 60 0 0 1-6.419 10.954c-.476.647.815-1.025.31-.401l-.459.574q-.52.64-1.062 1.266a50 50 0 0 1-2.11 2.286c-1.482 1.508-3.009 2.986-4.634 4.339-.409.34-1.644 1.056-.169.164-.406.245-.776.582-1.163.857q-.587.417-1.188.815c-.2.132-.405.257-.603.391q-.486.285-.909.659-1.215.97.006-.07c-.2-.127-2.21 1.212-2.516 1.367q-.636.325-1.284.625c-.216.1-.434.194-.65.294-1.089.5 1.091-.423.047-.026-1.904.723-3.872 1.414-5.881 1.755-2.825.479-4.66 4.108-3.815 6.72.987 3.049 3.693 4.329 6.72 3.815.139-.024 1.295-.302.348-.069-1.16.285.709-.075 1.277-.172q.804-.137 1.601-.313a36 36 0 0 0 3.126-.836 39 39 0 0 0 3.018-1.101 79 79 0 0 0 2.388-1.017c.477-.214 1.23-.43 1.607-.799l-.779.293 1.429-.603c.213-.105.422-.228.631-.344q.706-.393 1.396-.815a43 43 0 0 0 2.843-1.895c2.092-1.516 4.152-3.117 5.958-4.971 6.714-6.891 11.626-15.433 14.471-24.607 3.449-11.122 4.032-22.975 4.106-34.543.075-11.669-.139-23.344-.56-35.005-.851-23.57-2.603-47.108-5.596-70.506-.76-5.944-1.708-11.687-4.128-17.21-2.137-4.876-5.778-9.205-10.359-11.96-4.558-2.74-10.372-3.767-15.478-2.021-4.902 1.676-8.802 5.167-11.496 9.549-6.245 10.159-3.969 21.981-2.35 33.079.032.219.141 1.074.002-.014q.062.478.121.956.13 1.067.232 2.137.2 2.125.267 4.259a69 69 0 0 1-.398 9.867c-.031.278-.032.631-.106.892.3-1.062.062-.43.016-.119a69.8 69.8 0 0 1-4.137 15.599q-.166.418-.335.834c-.393.97-.022.109.03-.07-.205.696-.62 1.393-.927 2.046l10.24 2.773c2.623-26.713 4.822-55.395-7.577-80.166-2.703-5.401-6.765-10.93-12.177-13.868-6.24-3.388-13.434-2.589-18.776 2.059-4.787 4.166-7.053 10.861-7.039 17.067.017 7.372 2.708 14.334 4.326 21.43a99 99 0 0 1 1.48 8.03l.006.046a99.7 99.7 0 0 1 .155 23.742c-.035.309-.075.618-.11.927q-.117.912.002.029-.063.462-.132.924a100 100 0 0 1-2.504 11.861l10.111 1.368c.055-14.232-.982-28.481-3.206-42.54a270 270 0 0 0-3.947-20.014c-1.513-6.386-3.34-12.747-7.573-17.911-4.144-5.056-10.915-7.914-17.399-6.757-5.984 1.068-10.184 6.2-11.706 11.834-1.501 5.554-.874 11.255-.01 16.845 1.026 6.635 2.455 13.199 3.782 19.778.74 3.668 1.448 7.344 2.038 11.04q.217 1.375.416 2.754c.149 1.02.03.199.003-.005q.122.915.228 1.831c.213 1.822.386 3.65.505 5.481.235 3.625.26 7.268-.024 10.891a62 62 0 0 1-.244 2.479c-.035.293-.093 1.312-.019.174-.034.521-.162 1.055-.251 1.57a57 57 0 0 1-1.274 5.58l10.393 1.407c.87-15.487-.603-31.156-4.165-46.25-1.687-7.147-3.823-14.242-6.57-21.057-2.941-7.297-7.234-14.308-15.235-16.697-3.879-1.158-8.128-.835-11.704 1.09-3.196 1.72-5.317 4.638-6.653 7.93-2.413 5.947-1.427 12.686-.392 18.807 2.589 15.3 6.11 30.421 8.945 45.674a383 383 0 0 1 2.165 12.729q.25 1.651.482 3.304c.024.172.236 1.751.064.449q.125.944.244 1.89.385 3.069.689 6.147c.853 8.68 1.062 17.423.509 26.13h11.201c-.271-10.116-.985-20.366-5.204-29.702-3.71-8.211-11.3-15.216-20.181-17.338-4.966-1.187-9.993-.797-14.655 1.28-3.077 1.371-5.444 3.92-6.44 7.156-.794 2.579-.725 5.554-.892 8.237-.654 10.535-.978 21.101-.183 31.636s2.423 21.104 5.543 31.216q.942 3.053 2.071 6.042c.366.967.741 1.933 1.133 2.89.076.187.911 2.384.305.715.205.564.469 1.116.704 1.668q.342.803.696 1.599a93 93 0 0 0 5.979 11.281c4.622 7.411 10.307 14.3 17.09 19.83 7.369 6.008 15.693 10.46 24.773 13.304 1.05.329 2.108.631 3.169.921.265.073.529.153.797.217.45.108 2.133.487 1.262.213-.616-.193.194.078.363.114q.507.106 1.015.207c2.512.495 5.044.867 7.583 1.189 4.568.581 9.173.848 13.777.899 9.395.106 18.75-.74 28.096-1.583 2.32-.209 4.638-.433 6.956-.66 1.615-.158 3.004-1.267 3.004-3.004 0-1.554-1.376-3.099-3.004-3.004Z"/><path fill="#50b3ff" d="M819.768 183.114c-3.415-6.739-7.973-12.996-13.252-18.404-5.709-5.848-12.385-10.269-20.064-13.086-1.931-.709-3.907-1.31-5.94-1.645-3.109-.512-7.097-1.457-9.533 1.161-1.377 1.48-2.029 4.132-.765 5.925.886 1.256 1.754 2.126 3.259 2.596a5.8 5.8 0 0 0 1.813.31q.923.11-.149-.032c1.119.11 2.241.376 3.336.622 2.221.498 4.413 1.039 6.559 1.803.535.19 1.062.402 1.594.601q.824.337-.068-.038.393.17.784.345 1.563.704 3.074 1.514a74 74 0 0 1 5.873 3.49 73 73 0 0 1 2.769 1.953q.634.483.079.054a68 68 0 0 1 1.99 1.62 73 73 0 0 1 4.985 4.654c3.155 3.228 6.027 6.747 8.874 10.246.945 1.161 2.916 1.098 3.996.238 1.225-.976 1.487-2.538.784-3.926Zm-28.275-63.53c1.18.053 2.371.159 3.552.154.831-.004 1.683-.026 2.49-.228l1.661-.416c1.133-.283 2.087-1.485 2.034-2.671-.054-1.202-.818-2.367-2.034-2.671l-1.661-.416c-.805-.201-1.662-.227-2.49-.228-1.181-.001-2.372.101-3.552.154-.833.037-1.636.327-2.235.926-.548.548-.961 1.448-.926 2.235.08 1.776 1.389 3.081 3.161 3.161m23.79-2.628c2.083.406 4.217.617 6.338.5 1.132-.062 2.332-.136 3.429-.416 1.175-.3 2.179-.898 3.155-1.59.961-.683 1.648-1.869 1.255-3.084-.365-1.126-1.399-2.038-2.634-2.005q-.519.014-1.037.006c-.594-.011-1.125.046-1.727.126l.868-.117c-1.273.159-2.523.412-3.793.585l.876-.118a22.7 22.7 0 0 1-5.707.008l.831.112-.196-.027c-.871-.118-1.612-.15-2.405.315-.648.379-1.265 1.121-1.435 1.865-.352 1.545.466 3.506 2.18 3.84Zm28.734 4.09 6.127.1 3.006.049c.499.008 1.005.004 1.503-.029 1.037-.07 1.86-.462 2.771-.908 2.089-1.024 2.089-4.501 0-5.525-.902-.442-1.739-.846-2.771-.908a20 20 0 0 0-1.387-.031c-1.04.008-2.081.034-3.121.051l-6.127.1c-1.856.03-3.638 1.611-3.551 3.551.087 1.95 1.56 3.518 3.551 3.551Zm-35.8 17.293a102.8 102.8 0 0 1 22.882 10.482c7.148 4.404 13.581 9.779 19.845 15.345 2.174 1.932 5.183-1.044 3.2-3.2-5.939-6.461-13.219-11.614-20.854-15.893s-15.774-7.603-24.202-9.894c-2.045-.556-2.876 2.525-.871 3.16"/></svg>
