<?xml version="1.0" encoding="UTF-8"?><svg xmlns="http://www.w3.org/2000/svg" data-name="ARTWORK" viewBox="0 0 1000 1000" style="background:#1a4fb0"><path fill="#9fd4ff" d="M75.302 644.388c55.638-9.376 111.606-16.666 167.703-22.657 55.75-5.954 111.762-10.082 167.796-12.065a2360 2360 0 0 1 168.221.044c56.05 2.015 112.022 6.049 167.787 12.034 27.843 2.988 55.581 6.699 83.343 10.341 28.154 3.693 56.472 6.944 84.912 6.65a325 325 0 0 0 21.04-.908c3.832-.289 3.863-6.3 0-6.009-56.7 4.272-113.246-7.37-169.33-13.95-55.982-6.568-112.203-11.069-168.514-13.553a2360 2360 0 0 0-168.215-1.417c-56.353 1.535-112.623 4.936-168.721 10.525-55.783 5.558-111.267 13.609-166.392 23.772-6.853 1.263-13.7 2.56-20.542 3.882-2.183.422-1.239 3.674.913 3.311Z"/></svg>
