<?xml version="1.0" encoding="UTF-8"?><svg xmlns="http://www.w3.org/2000/svg" data-name="ARTWORK" viewBox="0 0 1000 1000"><path fill="#8a97a8" d="M193.167 906.344a1834 1834 0 0 1-57.122-248.767c-4.852-30.844-8.229-65.023 9.247-90.898 2.386-3.532 5.29-6.956 9.236-8.566 11.344-4.631 22.226 7.588 27.368 18.709a159 159 0 0 1 9.606 26.899 189.7 189.7 0 0 1 3.788-65.015c3.184-13.528 10.561-28.993 24.387-30.401 10.883-1.108 20.742 7.878 24.396 18.19s2.57 21.619 1.441 32.5c-.936-17.857-1.458-37.237 8.866-51.837s36.02-18.786 44.944-3.29c4.479 7.778 3.292 17.441 1.969 26.319.652-13.953 3.772-28.398 12.638-39.192s24.604-16.8 37.379-11.151c18.186 8.041 20.778 32.334 20.683 52.218 7.184-20.68 20.228-45.491 42.064-43.923 12.139.871 22.184 10.629 27.017 21.798s5.447 23.64 5.991 35.798l6.183 138.024c2.494 55.666 4.825 112.665-11.797 165.85-16.623 53.185-56.285 102.691-110.604 115.112-43.694 9.992-92.415-6.945-120.49-41.884" opacity=".37"/><path fill="#2c3e5a" d="M196.924 899.929c-17.034-26.558-30.305-55.32-40.324-85.213-10.151-30.287-17.199-61.636-22.296-93.147-5.099-31.52-8.148-63.367-10.32-95.212-1.083-15.873-2.304-31.83-2.537-47.741-.113-7.764.19-15.018 2.094-22.274 1.758-6.702 4.488-12.163 9.168-16.332.208-.186 1.569-1.309.778-.697a29 29 0 0 1 1.921-1.344c1.318-.855 2.697-1.564 4.098-2.269.17-.085 1.092-.471.122-.073q.539-.22 1.085-.417a33 33 0 0 1 3.867-1.14q.555-.126 1.117-.231c.154-.029 1.673-.245.852-.148-.61.072 1.106-.076 1.407-.09a26 26 0 0 1 2.212-.009c.415.017 2.402.255 1.064.04.71.114 1.416.255 2.112.436s1.366.411 2.043.644c-1.086-.374.332.158.714.358.559.294 1.075.647 1.623.957.951.538.304.174.065-.009.364.28.71.591 1.046.903 5.053 4.695 6.177 12.373 7.82 19.283l6.44 27.078q1.611 6.77 3.218 13.54c.774 3.264 4.488 5.203 7.639 4.337 3.578-.983 4.804-4.304 4.337-7.639-2.262-16.163-3.537-32.479-3.936-48.793-.196-8.004-.32-16.061.194-24.056.427-6.654 1.433-13.657 4.383-19.787 1.356-2.817 2.906-5.21 4.568-7.09 1.04-1.177 2.172-2.234 3.334-3.286.715-.647.032-.102.814-.658a32 32 0 0 1 2.205-1.443 27 27 0 0 1 2.019-1.082c.293-.141.587-.288.888-.411-.141.058-.664.261.009.03a30 30 0 0 1 2.171-.679c.32-.083 2.467-.505 1.533-.378 1.366-.185 2.773-.185 4.146-.09q.458.03.914.08c-1.096-.123-.081-.002.124.047.779.186 1.556.342 2.324.574q.855.26 1.689.583c-1.024-.392.666.328.943.471a29 29 0 0 1 3.575 2.216c.83.596-.614-.521.175.139.235.197.471.392.703.594q.815.712 1.582 1.475.665.66 1.295 1.353c.332.365 1.361 1.565 1.34 1.539 3.44 4.302 5.793 9.433 7.273 14.842 2.146 7.84 2.321 16.09 2.68 24.161.408 9.16.944 18.387 3.254 27.3.768 2.964 3.839 4.896 6.814 4.449 2.817-.424 5.664-2.979 5.385-6.1-1.296-14.496-2.563-29.052-2.016-43.619.258-6.867.923-13.692 2.296-20.427a103 103 0 0 1 2.73-10.582 63 63 0 0 1 1.289-3.673c.486-1.254.682-1.696 1.5-3.32a46 46 0 0 1 1.92-3.448 41 41 0 0 1 1.816-2.699c-.387.524.043-.06.204-.25.817-.969 1.667-1.906 2.591-2.774a24 24 0 0 1 1.408-1.232c-.687.551.735-.484.983-.641 1.968-1.246 3.995-2.071 6.076-2.28-.455.046 1.002-.027 1.293-.029.598-.004 1.192.027 1.788.074.749.06-.096-.018-.209-.038q.578.1 1.151.231c.668.155 1.319.358 1.97.57q.418.138.827.302c-.115-.046-.798-.369-.15-.047.533.264 1.062.529 1.58.824.522.298 1.025.623 1.529.95.254.164.5.342.746.518-.7-.5.15.118.412.34a32 32 0 0 1 2.704 2.588q.65.698 1.258 1.43c.204.245.411.491.605.745-.401-.523.038.073.176.276 3.355 4.968 5.116 8.703 6.287 14.532 1.468 7.305 1.165 15.047 1.258 22.514.105 8.434.538 16.967 2.872 25.12.931 3.252 4.42 5.278 7.705 4.375 3.612-.993 4.842-4.341 4.375-7.705-2.028-14.611-4.103-30.912-.607-45.398.858-3.556 1.987-7.057 3.54-10.218a38 38 0 0 1 2.197-3.871c.38-.586.784-1.153 1.184-1.724.092-.132.718-.926.117-.169q.375-.47.764-.929a43 43 0 0 1 3.106-3.288q.765-.731 1.566-1.423c.305-.264.618-.517.926-.779.268-.227.692-.545.168-.146a42.4 42.4 0 0 1 7.703-4.635c.357-.167.718-.334 1.083-.486-.257.107-.978.353.158-.041.647-.224 1.285-.469 1.938-.679a36 36 0 0 1 4.206-1.084c.375-.073.752-.135 1.128-.199-.255.043-1.186.104.045-.003.658-.057 1.313-.117 1.973-.145 1.403-.06 2.792.004 4.19.12 1.225.101.252.046.005 0 .364.068.727.128 1.09.205q.95.2 1.883.472c.933.272 1.234.4 1.848.615.215.075 1.056.489.072.024.34.161.68.322 1.014.494q1.015.525 1.978 1.141c.3.192 1.543 1.083 1.272.872-.242-.189.846.737 1.143 1.011a28 28 0 0 1 1.589 1.59c.174.189 1.531 1.835.79.862.383.503.74 1.026 1.085 1.556a30 30 0 0 1 1.963 3.529q.231.488.445.984c-.101-.239-.385-1.073-.011.035.204.604.434 1.198.629 1.805.426 1.32.781 2.663 1.082 4.017a62 62 0 0 1 .765 4.199c.109.724-.01-.093-.024-.202q.073.58.138 1.159.13 1.172.23 2.347c.258 3.013.382 6.037.469 9.06.412 14.387.093 29.204 6.528 42.461 1.174 2.419 4.472 3.506 6.946 2.827 2.366-.65 4.863-3.301 4.515-5.931-2.066-15.619-4.417-32.043-.713-47.59 1.575-6.611 3.683-11.561 7.76-17.252.577-.806 1.304-1.724 2.36-2.908a47 47 0 0 1 3.494-3.53c2.088-1.893 3.997-3.282 6.932-4.871.659-.357 1.33-.683 2.004-1.01-.006.003.952-.419.424-.198-.598.251.617-.232.735-.276a32.5 32.5 0 0 1 4.58-1.325 25 25 0 0 1 1.882-.336c-.981.129.099.01.25.003.429-.018.856-.062 1.285-.079a31 31 0 0 1 4.522.157c-.978-.103.84.153 1.138.213q1.064.214 2.112.502a32 32 0 0 1 3.205 1.071c.958.374-.725-.345.205.093a38 38 0 0 1 3.783 2.028 38 38 0 0 1 2.81 1.909c-.525-.393-.008-.008.215.179 2.352 1.982 4.523 4.13 6.488 6.499q.309.372.612.75c-.501-.624.167.214.219.284a63 63 0 0 1 3.954 6.017c3.242 5.596 5.062 10.144 6.773 16.459 4.335 15.992 4.821 32.672 4.916 49.145.1 17.282.013 34.566-.092 51.848-.106 17.375-.479 34.754-.381 52.128.098 17.526.234 35.049.372 52.576.136 17.377.493 34.739.199 52.113-.294 17.366-.873 34.733-1.057 52.1-.046 4.372.025 8.768-.153 13.136-.113 2.77 4.191 2.765 4.304 0 .37-9.06 1.203-18.117 1.656-27.178q.68-13.59 1.299-27.183c.412-9.041.465-18.165 1.17-27.186.708-9.059 1.312-18.115 1.796-27.19.975-18.276 1.869-36.549 2.488-54.841.613-18.127.702-36.258.794-54.394.091-18.062.136-36.126.034-54.188-.099-17.574-.684-35.362-5.011-52.485-3.362-13.304-9.825-26.681-20.174-35.965-10.491-9.411-24.917-13.802-38.61-9.218-13.415 4.491-24.114 15.624-29.677 28.456-6.796 15.678-6.546 33.138-4.683 49.814.498 4.461 1.103 8.91 1.701 13.358l11.242-4.739c-.093-.191-1.018-2.249-.587-1.208-.3-.724-.57-1.461-.825-2.202a49 49 0 0 1-1.313-4.545 63 63 0 0 1-.927-4.703 69 69 0 0 1-.18-1.196c.038.271.12 1.076-.017-.177-.089-.81-.182-1.62-.258-2.431-.623-6.679-.582-13.397-.768-20.097-.364-13.157-1.657-27.057-10.731-37.365-9.305-10.571-24.324-12.951-37.227-8.289-14.227 5.141-24.779 16.125-29.917 30.259-6.788 18.671-3.967 39.19-1.317 58.357l12.08-3.33c-4.286-15.004-1.268-31.04-3.875-46.395-2.051-12.076-9.546-25.031-20.754-30.707-6.008-3.043-12.926-3.987-19.437-2.009-6.696 2.035-11.92 6.595-16.022 12.123-8.577 11.558-11.358 27.105-12.746 41.09-1.76 17.736-.167 35.591 1.44 53.274l12.2-1.651c-4.283-16.424-1.513-33.76-5.542-50.245-3.122-12.774-11.204-26.128-23.593-31.678-6.681-2.993-14.282-3.697-21.294-1.342-7.428 2.494-13.445 7.456-18.103 13.666-9.982 13.308-10.272 31.132-10.205 47.05.087 20.593 1.706 41.12 4.586 61.506l11.976-3.302c-2.257-9.461-4.503-18.925-6.753-28.388-2.045-8.6-3.458-17.749-6.807-25.962-3.097-7.596-8.236-13.555-16.041-16.431-6.19-2.28-13.387-1.954-19.628-.051-6.63 2.021-12.967 5.815-17.599 11.007-5.437 6.095-8.785 13.939-10.493 21.866-3.506 16.276-1.412 33.44-.364 49.881 2.146 33.661 5.146 67.272 10.193 100.633 4.985 32.949 11.949 65.609 22.377 97.289 10.299 31.289 23.803 61.638 41.358 89.552a356 356 0 0 0 6.745 10.314c2.34 3.451 7.938.273 5.646-3.3Z"/><path fill="#2c3e5a" d="m173.865 608.07 12.643-5.291a180 180 0 0 0 6.694-2.987c2.163-1.011 4.244-1.944 6.201-3.319 1.583-1.112 2.36-2.945 1.575-4.806-.715-1.695-2.7-2.813-4.541-2.229-4.509 1.433-8.793 3.972-12.881 6.339l-11.955 6.922c-1.256.727-1.782 2.351-1.202 3.669.528 1.2 2.098 2.274 3.467 1.701Zm59.815-33.883c1.007-.029 1.973-.107 2.946-.389l2.024-.588c1.452-.422 2.885-.854 4.307-1.37s2.841-1.027 4.259-1.546c1.186-.434 2.669-.935 3.59-1.856 1.224-1.224 1.712-3.191 1.035-4.794-.672-1.591-2.389-2.631-4.111-2.631-1.29 0-2.629.658-3.773 1.164-1.379.611-2.755 1.23-4.132 1.846s-2.71 1.29-4.046 1.994l-1.992 1.05c-.88.464-1.601 1.085-2.332 1.751-2.006 1.827-.446 5.448 2.224 5.369Zm57.765-30.566.192.231.379 1.403-.074.442-1.344 1.748c.268-.16 1.796-.976.829-.55q.244-.143.509-.244-.701.242-.121.082c1.003-.058 2.038-.327 3.033-.476q.789-.11.162-.025.79-.1 1.58-.21c.432-.069.861-.152 1.291-.234a111 111 0 0 1 4.743-.8q.433-.063.867-.124-.798.105.04-.003c1.003-.123 2.008-.227 3.012-.342 2.422-.276 4.989-.319 7.302-1.082 1.892-.624 3.528-2.4 3.433-4.51-.084-1.866-1.372-4.229-3.433-4.51-.986-.134-1.986-.364-2.978-.281-.944.079-1.889.243-2.827.372a65 65 0 0 0-4.073.666 111 111 0 0 0-8.235 2.002c-1.337.379-2.618.885-3.904 1.41-1.427.582-3.139 1.051-4.251 2.185-1.141 1.164-1.925 2.958-1.476 4.595.426 1.553 1.874 2.763 3.501 2.706 2.243-.079 3.458-2.802 1.844-4.451Zm66.315-1.532a115 115 0 0 1 4.194-.69q.332-.048.665-.094-.36.05.053-.005 2.755-.351 5.524-.555c3.712-.273 7.409-.269 11.128-.244 2.377.016 4.652-2.101 4.543-4.543-.109-2.427-1.997-4.586-4.543-4.543-7.902.134-15.922 1.457-23.566 3.41-1.909.488-3.249 2.722-2.63 4.633.674 2.082 2.552 3.011 4.633 2.63ZM241.664 792.85a335 335 0 0 1 62.126-31.43c6.203-2.364 12.422-4.687 18.719-6.789 3.358-1.121 1.981-6.358-1.474-5.348-22.831 6.677-44.69 16.373-65.244 28.325a329 329 0 0 0-16.883 10.523c-1.227.817-1.756 2.411-.98 3.737.721 1.233 2.492 1.783 3.737.98Zm6.436 47.598a172.9 172.9 0 0 1 45.779-25.626 228 228 0 0 1 14.463-4.862c3.361-1.005 1.959-6.178-1.452-5.268-17.673 4.713-34.573 12.692-49.79 22.805-4.364 2.9-8.585 6.004-12.687 9.263-1.103.877-.916 2.772 0 3.687 1.096 1.096 2.574.87 3.687 0Zm42.289 25.678 5.01-3.798q.572-.308.917-.842a2.46 2.46 0 0 0 .585-1.112l.117-.869q.026-.675-.282-1.26c-.265-.628-.718-1.236-1.338-1.563-.775-.409-1.658-.575-2.519-.33l-5.903 1.68c-1.136.323-2.018 1.06-2.647 2.035a4.4 4.4 0 0 0-.605 2.235q-.035.915.381 1.706.268.823.916 1.425.601.648 1.425.916a3.34 3.34 0 0 0 1.706.381 4.4 4.4 0 0 0 2.235-.605Z"/><path fill="#8a97a8" d="M799.367 906.344a1834 1834 0 0 0 57.122-248.767c4.852-30.844 8.229-65.023-9.247-90.898-2.386-3.532-5.29-6.956-9.236-8.566-11.344-4.631-22.226 7.588-27.368 18.709a159 159 0 0 0-9.606 26.899 189.7 189.7 0 0 0-3.788-65.015c-3.184-13.528-10.561-28.993-24.387-30.401-10.883-1.108-20.742 7.878-24.396 18.19-3.653 10.311-2.57 21.619-1.441 32.5.936-17.857 1.458-37.237-8.866-51.837s-36.02-18.786-44.944-3.29c-4.479 7.778-3.292 17.441-1.969 26.319-.652-13.953-3.772-28.398-12.638-39.192s-24.604-16.8-37.379-11.151c-18.186 8.041-20.778 32.334-20.683 52.218-7.184-20.68-20.228-45.491-42.064-43.923-12.139.871-22.184 10.629-27.017 21.798s-5.447 23.64-5.991 35.798l-6.183 138.024c-2.494 55.666-4.825 112.665 11.797 165.85 16.623 53.185 56.285 102.691 110.604 115.112 43.694 9.992 92.415-6.945 120.49-41.884" opacity=".37"/><path fill="#2c3e5a" d="M801.256 903.229c18.537-27.335 32.997-57.22 44.124-88.283 11.23-31.353 18.913-63.781 24.403-96.6 5.567-33.283 8.949-66.869 11.317-100.518a2068 2068 0 0 0 1.605-25.133c.471-8.102.993-16.235.516-24.349-.94-15.992-6.055-32.512-20.324-41.413-11.552-7.206-28.072-8.559-38.382 1.594-6.237 6.142-8.342 14.844-10.298 23.065l-6.648 27.952q-1.661 6.988-3.325 13.975l11.976 3.302c2.566-18.164 4.146-36.439 4.506-54.783.323-16.469.957-34.722-7.368-49.559-7.283-12.981-21.861-22.184-36.989-18.415-13.721 3.419-22.959 16.229-27.391 28.938-6.152 17.641-2.234 36.936-6.909 54.863l12.2 1.651c1.43-15.747 2.836-31.586 1.901-47.407-.861-14.569-3.231-30.35-10.698-43.153-6.744-11.562-19.434-20.187-33.199-15.886-12.55 3.922-21.07 16.129-24.539 28.31-4.716 16.558-.153 34.283-4.86 50.759l12.08 3.33c2.394-17.318 4.77-35.19.487-52.427-3.628-14.597-12.682-27.339-26.421-33.957-12.845-6.187-27.89-6.482-39.268 2.916-10.574 8.734-13.134 22.66-13.804 35.635-.382 7.398-.226 14.816-.732 22.208a107 107 0 0 1-.517 5.492c-.124 1.03.131-.848-.024.174-.075.498-.15.995-.234 1.492a63 63 0 0 1-.503 2.653 52 52 0 0 1-1.362 5.161 60 60 0 0 1-.886 2.495c-.062.167-.463 1.079-.056.158a45 45 0 0 1-.749 1.596l11.242 4.739c2.304-17.138 4.6-34.602.784-51.713-3.18-14.26-11.499-27.418-23.892-35.389-12.169-7.827-27.566-8.414-40.148-1.202-12.113 6.942-20.117 19.323-25.088 32.045-6.048 15.479-7.409 32.783-7.905 49.246-.537 17.863-.276 35.772-.225 53.641.052 18.271-.105 36.584.416 54.849.518 18.141 1.282 36.266 2.209 54.389.927 18.136 2.283 36.241 3.07 54.379.787 18.118 1.425 36.27 2.636 54.365.303 4.524.739 9.06.924 13.589.113 2.76 4.417 2.774 4.304 0-.357-8.739-.224-17.525-.427-26.272a6221 6221 0 0 1-.991-52.103c-.13-8.752.27-17.527.321-26.283.202-34.758.457-69.489.172-104.248a6228 6228 0 0 1-.21-52.584c.004-16.402-.34-33.045 2.316-49.286 1.187-7.26 2.879-14.491 5.67-21.315-.252.616.448-1.017.554-1.249q.479-1.053.991-2.09a70 70 0 0 1 2.182-4.074c1.447-2.496 3.5-5.503 4.785-7.052 4.107-4.952 7.631-7.985 13.295-10.616.65-.302.043-.031-.08.019q.567-.232 1.145-.438a33 33 0 0 1 4.152-1.186c.325-.069 2.456-.382 1.443-.275a31 31 0 0 1 4.522-.157q.483.02.964.056c.14.01 1.459.132.765.052-.615-.071.418.064.436.068a42 42 0 0 1 1.563.306 33 33 0 0 1 5.163 1.598c-.266-.109-.86-.415.266.132.77.374 1.537.749 2.287 1.163a40 40 0 0 1 3.566 2.222c1.353.944 1.669 1.212 3.083 2.495 4.807 4.364 7.931 8.749 10.726 14.802.185.402.373.806.542 1.215-.057-.139-.254-.612.002.049.278.719.546 1.441.792 2.171a63 63 0 0 1 1.647 5.858c.85 3.667 1.35 7.347 1.584 11.101.498 7.985-.032 15.998-.889 23.94-.438 4.055-.967 8.1-1.501 12.144-.801 6.06 8.907 8.367 11.461 3.104 5.685-11.712 6.133-24.738 6.41-37.52.067-3.071.129-6.143.275-9.212.071-1.499.163-2.997.287-4.493q.085-1.031.191-2.059c.043-.407.296-2.384.135-1.256.398-2.785.96-5.554 1.805-8.24.219-.696.48-1.375.713-2.066.336-.998-.307.551.321-.774a32 32 0 0 1 1.929-3.548c.387-.608.795-1.208 1.232-1.782-.672.883.378-.404.605-.656a28 28 0 0 1 3.08-2.928c-.775.633.892-.61 1.11-.75q.844-.54 1.727-1.008c.301-.16 1.883-.891.817-.447.685-.285 1.391-.526 2.101-.741s1.426-.397 2.15-.549c.271-.057.547-.097.817-.156.955-.209-.972.089.002-.017a29.5 29.5 0 0 1 4.184-.163c.755.025 1.502.092 2.254.157.082.007 1.01.141.305.034-.773-.117.414.081.587.116 1.421.287 2.825.614 4.21 1.047.748.234 1.476.513 2.216.768.037.013.942.368.354.127-.652-.266.481.213.617.276a44 44 0 0 1 3.968 2.078 44 44 0 0 1 3.762 2.501c.57.421.042.027-.06-.053q.474.375.936.766.926.779 1.807 1.607a43 43 0 0 1 3.128 3.269c.178.207 1.344 1.663.721.845.482.635.939 1.29 1.378 1.955 1.763 2.672 3.121 5.502 4.144 8.396 5.768 16.31 3.47 34.615 1.148 51.341-.465 3.346.813 6.726 4.375 7.705 3.301.907 6.77-1.111 7.705-4.375 4.072-14.223 2.034-28.997 3.521-43.514.28-2.73.817-5.497 1.645-8.17.306-.989.946-2.77 1.143-3.237.242-.574 1.127-2.375 1.684-3.383a41 41 0 0 1 2.803-4.387c-.083.113-.446.558-.002-.002.461-.582.947-1.146 1.448-1.694a32 32 0 0 1 2.683-2.62c.308-.266.623-.538.947-.785-.108.082-.637.464-.052.071s1.161-.788 1.768-1.145c.514-.302 1.048-.561 1.571-.846.985-.535-.396.051.667-.286.56-.177 1.11-.374 1.678-.524.419-.111 2.371-.434 1.216-.308 1.2-.13 2.395-.11 3.597-.033-1.01-.065.465.079.8.152q1.075.237 2.118.591c.294.1.588.202.876.318-.282-.114-.864-.456.188.118.541.295 1.086.575 1.612.898s1.039.666 1.535 1.032c-.709-.524.669.596.886.795a30 30 0 0 1 2.616 2.742c.206.244.413.489.609.742-.522-.674.121.19.179.277.427.629.859 1.252 1.263 1.897 3.216 5.131 4.685 9.47 6.283 15.576 1.776 6.786 2.831 13.694 3.33 20.683 1.17 16.37-.263 32.784-1.72 49.086-.271 3.037 2.57 5.765 5.385 6.1 2.994.356 6.025-1.401 6.814-4.449 3.985-15.372 2.097-31.312 4.897-46.812.551-3.049 1.342-6.038 2.423-8.943.084-.225.821-2.029.466-1.215q.391-.894.819-1.771a48 48 0 0 1 2.344-4.258c1.754-2.832 2.574-3.895 4.894-6.195 2.108-2.09 2.952-2.789 5.77-4.286.254-.135 1.784-.851 1.408-.696-.323.133 1.093-.375 1.489-.495a23 23 0 0 1 2.917-.68c-.672.111-.344.023.139 0 3.515-.163 4.552 0 7.85 1.015-.016-.005.987.358.463.152-.596-.235.629.287.739.341q.883.428 1.735.918a29 29 0 0 1 2.755 1.802c.426.32-.126-.148.548.462 1.078.975 2.134 1.957 3.109 3.037.524.581 1.047 1.172 1.519 1.797-.093-.123-.375-.499.029.075.323.459.644.917.95 1.388 7.86 12.093 7.122 27.746 6.981 41.65-.186 18.408-1.493 36.833-4.045 55.067-.464 3.317.808 6.669 4.337 7.639 3.152.866 6.862-1.06 7.639-4.337 2.141-9.027 4.292-18.053 6.438-27.079 1.988-8.359 3.462-17.089 6.327-25.202.974-2.758 2.441-5.515 4.714-7.62q.406-.376.834-.729c.73-.606-.749.477.053-.012.538-.328 1.054-.684 1.609-.985.288-.156 2.178-.905.951-.483.677-.233 1.35-.464 2.043-.644s1.402-.321 2.112-.436c-1.247.201.359-.004.79-.026a26 26 0 0 1 2.208-.015c.458.016 2.663.237 1.418.061a29 29 0 0 1 3.902.846 32 32 0 0 1 3.285 1.131c-.604-.248-.276-.128.122.073 1.313.661 2.608 1.321 3.85 2.112q.99.629 1.933 1.327c.57.423-.006 0-.099-.075q.68.553 1.33 1.141c1.008.915 1.916 1.91 2.82 2.924.791.887.265.321.102.102q.343.462.665.939a36 36 0 0 1 1.479 2.393c3.447 6.043 5.093 13.499 5.648 20.275.642 7.835.281 15.707-.11 23.545-.405 8.118-.847 16.234-1.344 24.347-1.952 31.855-4.679 63.726-9.298 95.316-4.611 31.53-11.088 62.913-20.449 93.392-9.246 30.101-21.548 59.264-37.668 86.349a358 358 0 0 1-6.276 10.144c-2.29 3.57 3.304 6.755 5.646 3.3Z"/><path fill="#2c3e5a" d="m820.933 602.699-11.955-6.922c-4.088-2.367-8.373-4.906-12.881-6.339-1.83-.582-3.827.537-4.541 2.229-.782 1.854-.015 3.69 1.575 4.806 1.893 1.33 3.888 2.237 5.981 3.216a186 186 0 0 0 6.914 3.091l12.643 5.291c1.33.557 2.98-.492 3.467-1.701.538-1.339.09-2.921-1.202-3.669Zm-59.855-33.881c-.731-.666-1.453-1.287-2.332-1.751l-1.859-.98c-1.335-.704-2.663-1.387-4.041-2.003s-2.753-1.234-4.132-1.846c-1.191-.528-2.566-1.226-3.911-1.226-1.722 0-3.44 1.04-4.111 2.631-.677 1.604-.188 3.571 1.035 4.794.88.88 2.315 1.389 3.448 1.804 1.418.52 2.839 1.03 4.259 1.546a69 69 0 0 0 4.305 1.38l2.169.63c.973.283 1.939.36 2.946.389 2.661.078 4.235-3.537 2.224-5.369Zm-58.145-20.746c1.532.054 2.767-.948 3.338-2.32.692-1.662-.019-3.622-1.207-4.888-1.121-1.195-2.891-1.679-4.358-2.278-1.287-.525-2.567-1.03-3.904-1.41a111 111 0 0 0-8.022-1.958 64 64 0 0 0-4.07-.68c-1.007-.14-2.027-.316-3.042-.401-.992-.083-1.992.147-2.978.281-1.927.262-3.516 2.666-3.433 4.51.096 2.137 1.401 3.839 3.433 4.51 2.31.762 4.882.806 7.302 1.082 1.004.115 2.009.22 3.012.342q.838.11.04.003.434.06.867.124a111 111 0 0 1 4.743.8c.431.082.858.166 1.291.234q.79.11 1.58.21-.627-.084.162.025c.955.143 2.066.482 3.033.476q.58.16-.121-.082.264.1.509.244c-.968-.426.561.39.829.55l-1.344-1.748-.074-.442.379-1.403.192-.231c-1.616 1.65-.4 4.372 1.844 4.451Zm-66.157-13.246c-7.644-1.953-15.664-3.277-23.566-3.41-2.377-.04-4.652 2.118-4.543 4.543.11 2.448 1.996 4.56 4.543 4.543 3.719-.025 7.416-.031 11.128.244a115 115 0 0 1 5.578.56l.443.062q.665.095 1.328.197 1.547.241 3.087.525c1.931.353 4.154-.528 4.633-2.63.446-1.96-.588-4.111-2.63-4.633Zm116.851 253.307c-19.819-13.195-41.005-24.141-63.255-32.619-6.194-2.36-12.512-4.37-18.873-6.23-3.449-1.009-4.838 4.225-1.474 5.348 22.05 7.361 43.539 16.552 63.814 27.947a327 327 0 0 1 17.031 10.272c1.24.8 3.016.254 3.737-.98.783-1.339.251-2.917-.98-3.737Zm-5.506 48.628a181.3 181.3 0 0 0-47.759-27.313 145 145 0 0 0-14.718-4.756c-3.405-.908-4.818 4.262-1.452 5.268 16.944 5.065 33.139 12.164 48.001 21.79a170 170 0 0 1 12.241 8.698c1.109.866 2.606 1.081 3.687 0 .908-.908 1.109-2.807 0-3.687m-42.564 21.271-5.903-1.68c-.777-.221-1.83-.115-2.519.33l-.662.511a2.45 2.45 0 0 0-.676 1.052c-.274.65-.388 1.439-.165 2.129l.33.781q.437.736 1.173 1.173l5.01 3.798a4.4 4.4 0 0 0 2.235.605l1.177-.158q1.126-.315 1.954-1.139.648-.601.916-1.425a3.34 3.34 0 0 0 .381-1.706 3.34 3.34 0 0 0-.381-1.706 3.3 3.3 0 0 0-.916-1.425 4.43 4.43 0 0 0-1.954-1.139Z"/><path fill="#62c584" d="M60.077 875.256c-10.941-69.88-18.482-140.345-23.375-210.902-4.867-70.181-7.189-140.483-6.267-210.834.203-15.442.019-31.052 1.697-46.425 1.376-12.607 4.466-25.81 12.288-36.085 15.076-19.802 43.363-21.208 66.072-23.662 42.295-4.572 84.731-8.055 127.178-10.85 21.731-1.431 43.484-2.661 65.253-3.329 15.513-.476 31.199-.98 46.688.307 1.242.103 2.479.234 3.718.37 1.913.21-1.057-.194.353.042.5.084 1.003.155 1.503.24 3.147.539 6.374-.837 7.28-4.134.782-2.846-.966-6.737-4.134-7.28-13.657-2.34-27.896-1.868-41.688-1.616-21.176.386-42.34 1.507-63.476 2.824a3143 3143 0 0 0-132.573 11.07c-9.077.953-18.161 1.91-27.209 3.11-14.43 1.913-29.225 4.592-41.908 12.153-26.114 15.566-30.629 46.552-31.323 74.384-1.768 70.921.53 142.11 5.412 212.866 4.941 71.605 13.894 142.796 25.375 213.63a2517 2517 0 0 0 4.265 25.462c.555 3.213 5.365 1.826 4.869-1.342Zm591.537-551.901c60.177-2.984 120.372-3.851 180.435 1.699 29.479 2.724 59.029 6.196 88.105 11.864 10.031 1.955 21.265 4.555 28.704 12.082 8.959 9.066 7.767 23.876 8.322 35.613a9906 9906 0 0 1 6.997 184.72c1.758 61.593 3.004 123.209 3.828 184.821q.613 46.053.808 92.108c.131 30.698-.326 61.415.045 92.11.093 7.685.229 15.348.562 23.027.283 6.523 9.684 6.472 10.098 0 2.012-31.467 1.477-63.147 1.596-94.667q.176-46.694-.097-93.389a8377 8377 0 0 0-3.194-188.025 9908 9908 0 0 0-7.108-187.926c-.369-7.792-.717-15.586-1.142-23.375-.377-6.925-.904-14.104-3.318-20.664-4.464-12.126-14.239-19.645-26.002-24.144-11.946-4.569-25.092-6.045-37.65-7.999a1013 1013 0 0 0-46.286-6.117c-60.652-6.593-122.845-7.883-183.528-.997-7.359.835-14.696 1.911-22.022 2.999-3.551.528-2.711 6.436.847 6.26"/><g fill="#62c584"><path d="M647.205 150.785C602.697 85.204 519.863 47.001 441.8 66.473c-66.493 16.586-122.887 55.188-147.585 120.798-18.929 50.285-17.052 110.617 13.578 156.011 12.05 17.86 28.295 32.621 47.249 42.872 60.325 32.624 135.463 42.139 198.114 14.243 91.285-40.646 155.901-158.472 94.049-249.612m-54.418 23.055c-17.967 28.198-42.591 56.342-67.407 78.75-15.889 14.347-36.595 28.121-57.216 22.362-3.284-.917-6.508-2.37-8.901-4.799-5.598-5.676-5.118-15.341-1.048-22.194 4.072-6.853 10.9-11.534 17.554-15.921a1164 1164 0 0 1 105.298-61.752c4.721-2.444 9.823-4.927 15.099-4.288.807 2.965-.67 6.391-3.38 7.842Z"/><path d="M651.78 148.112c-11.057-16.246-24.305-30.973-39.402-43.56-15.014-12.517-31.63-23.083-49.499-31.035-18.096-8.052-37.082-13.484-56.736-15.982a180 180 0 0 0-58.436 2.176c-18.574 3.772-36.804 10.038-54.055 17.842-16.794 7.597-32.596 17.173-46.979 28.707a186.4 186.4 0 0 0-37.161 40.066c-10.984 16.04-19.266 33.945-24.778 52.574-5.95 20.109-8.734 41.324-7.935 62.288.81 21.252 5.315 42.204 13.8 61.718 8.49 19.527 21.32 37.25 37.529 51.092 16.733 14.29 36.77 24.022 57.24 31.76a255.6 255.6 0 0 0 64.045 15.147c21.665 2.241 43.638 1.406 65.023-2.786 19.993-3.919 39.32-11.061 57.085-21.033 15.605-8.759 30.074-19.654 42.985-32.035 12.955-12.423 24.424-26.501 33.936-41.724 9.355-14.972 16.839-31.24 21.793-48.197 4.858-16.626 7.274-34.126 6.557-51.451-.747-18.045-4.874-35.672-12.093-52.213-3.566-8.171-7.926-15.972-12.919-23.356-1.601-2.367-4.664-3.412-7.248-1.9-2.348 1.373-3.51 4.867-1.9 7.248 5.096 7.536 9.439 15.486 13.114 23.805.403.912-.151-.386.229.533q.327.787.644 1.577.631 1.575 1.225 3.164a137 137 0 0 1 7.109 27.496c.081.539.156 1.079.234 1.618-.149-1.042.039.321.082.674.51 4.154.833 8.33.972 12.513.139 4.17.095 8.345-.124 12.511a150 150 0 0 1-.936 10.621c-.044.358-.226 1.711-.08.663a166 166 0 0 1-5.347 24.579 177 177 0 0 1-4.062 12.022 190 190 0 0 1-2.358 5.923c-.235.564.04-.097.074-.176a183 183 0 0 1-.942 2.173 186 186 0 0 1-1.365 3.025 198 198 0 0 1-12.189 22.41 208 208 0 0 1-11.138 15.972c.524-.682-.181.231-.354.452q-.52.665-1.047 1.325a215 215 0 0 1-29.406 30.266 211 211 0 0 1-6.362 5.164c-.774.607.331-.246-.452.349-.893.68-1.789 1.358-2.691 2.025a202 202 0 0 1-21.704 14.027c-7.955 4.439-15.962 8.197-24.073 11.24-9.854 3.697-20.023 6.537-30.352 8.547a182 182 0 0 1-14.754 2.275c-5.138.573-10.296.952-15.462 1.147-10.576.399-21.178.018-31.704-1.071-5.367-.555-9.479-1.127-14.975-2.082a249 249 0 0 1-15.658-3.246c-20.749-5.001-40.101-12.327-58.722-22.152-9.149-4.827-17.628-10.43-25.097-16.891a134 134 0 0 1-11.209-10.904c-3.592-3.927-6.497-7.5-9.392-11.558-11.897-16.676-19.368-34.631-23.592-54.621a166 166 0 0 1-2.072-11.93c.017.124.084.638.004.011q-.143-1.118-.273-2.24a177 177 0 0 1-1.088-15.206c-.143-4.997-.08-9.999.183-14.991a189 189 0 0 1 1.169-13.254l.106-.843c.029-.226.113-.853.034-.276a190.5 190.5 0 0 1 6.523-29.76 190 190 0 0 1 6.497-18.048c-.043.103-.266.625-.025.063q.41-.957.83-1.912a182 182 0 0 1 2.825-6.1 177 177 0 0 1 13.744-23.518 175 175 0 0 1 3.917-5.427q.446-.592.895-1.182c.094-.123.614-.792.076-.101l.456-.583q1.064-1.356 2.155-2.692a179 179 0 0 1 8.749-9.939 187 187 0 0 1 20.609-18.696l.579-.451c-.077.06-.584.448-.103.082a204 204 0 0 1 8.127-5.902 209 209 0 0 1 11.179-7.183c7.612-4.559 15.504-8.646 23.594-12.285a241 241 0 0 1 4.604-2.014c.563-.24-.011.004-.106.044l.93-.388q3.15-1.306 6.335-2.526a265 265 0 0 1 12.949-4.579c8.898-2.891 17.959-5.443 27.14-7.263a170 170 0 0 1 8.648-1.484c.246-.036 1.528-.216.691-.102a173 173 0 0 1 17.849-1.429c9.41-.267 18.83.239 28.165 1.442-.859-.111.398.055.659.092a187 187 0 0 1 12.322 2.171 191 191 0 0 1 13.408 3.341c4.516 1.3 8.984 2.764 13.395 4.385a199 199 0 0 1 8.029 3.15c.982.409.393.167.18.076l.721.309q1.682.725 3.351 1.481a206 206 0 0 1 24.688 13.288 210 210 0 0 1 15.966 11.117c-.577-.444.612.478.799.625a208 208 0 0 1 25.991 24.27 206 206 0 0 1 9.833 11.753c-.445-.577.337.446.459.607q1.039 1.37 2.054 2.758a210 210 0 0 1 4.118 5.84c1.608 2.362 4.658 3.415 7.248 1.9 2.342-1.37 3.518-4.872 1.9-7.248Z"/><path d="M588.213 171.167a328 328 0 0 1-9.996 14.75 358 358 0 0 1-6.722 9.064l-.564.735c-.938 1.221.642-.818-.307.396a531 531 0 0 1-2.877 3.655 416 416 0 0 1-23.939 27.448c-8.181 8.599-16.67 17.011-25.695 24.728a155 155 0 0 1-4.686 3.85q-.342.27-.687.537c.971-.753-.293.218-.488.364a110 110 0 0 1-6.98 4.855 84 84 0 0 1-7.484 4.266c-1.113.557-2.276 1.217-3.457 1.615 1.101-.371.19-.079-.092.035q-.486.197-.974.386-1.07.413-2.154.782a49 49 0 0 1-7.745 1.98c-.062.01-1.382.236-.5.088.877-.148-.434.05-.502.057q-.906.099-1.814.157a39 39 0 0 1-4.251.042 37 37 0 0 1-1.827-.13c-.333-.032-.69-.038-1.016-.111.158.036 1.18.192.188.017-1.37-.242-2.728-.513-4.07-.888a30 30 0 0 1-1.957-.618c-.036-.013-1.309-.468-.518-.178.782.286-.449-.208-.494-.23a19 19 0 0 1-1.62-.87c-.291-.175-.57-.368-.858-.549-1.107-.695.753.713-.221-.159a17 17 0 0 1-1.374-1.344c-.148-.167-.287-.382-.447-.531.861.804.369.473.121.099q-.424-.642-.777-1.325l-.152-.305q-.284-.622-.012.011.26.638.01.001-.09-.24-.171-.483a16 16 0 0 1-.422-1.484c-.079-.337-.135-.676-.204-1.015-.087-.424.089-.748.045.377.045-1.164-.146-2.331-.065-3.508.02-.295.057-.589.081-.884.064-.787-.242 1.361-.016.173.111-.586.223-1.17.37-1.749a22 22 0 0 1 .749-2.389l.128-.333q.325-.803-.119.28c.628-.826.999-1.997 1.564-2.888.36-.568.746-1.115 1.137-1.661.568-.791-.016-.019-.095.116.229-.387.605-.74.9-1.079 1.723-1.982 3.668-3.76 5.713-5.404.027-.022 1.08-.848.425-.341s.41-.306.438-.327q.737-.549 1.486-1.083a136 136 0 0 1 3.534-2.43c5.058-3.38 10.172-6.679 15.297-9.956a1165 1165 0 0 1 89.155-51.599c1.32-.688 2.638-1.38 3.968-2.051q.927-.47 1.867-.913c.349-.164.704-.314 1.052-.48q.524-.23-.204.081.426-.175.856-.337c1.284-.485 2.585-.834 3.919-1.149 1.383-.326-.721.016.143-.046.372-.026.742-.068 1.116-.082.753-.027 1.501.014 2.25.092l-5.108-3.889c.268 1.103.048-1.201.023-.068-.006.281-.013.567-.013.847 0 .635.288-1.152.001-.235a6 6 0 0 1-.143.49q-.194.569.226-.472c-.009-.002-.374.706-.401.751-.498.818-.184-.002.13-.11-.045.015-.701.671-.721.717l.534-.415a6 6 0 0 1-.582.354c-2.407 1.376-3.44 4.859-1.9 7.248 1.567 2.431 4.673 3.372 7.248 1.9 4.824-2.757 7.111-8.479 5.815-13.824-.593-2.444-2.811-3.649-5.108-3.889-6.983-.73-13.482 2.778-19.467 5.891a1164 1164 0 0 0-100.814 59.039c-5.046 3.306-10.171 6.594-14.679 10.629-4.43 3.965-8.105 8.815-10.024 14.484-1.727 5.1-1.98 11.171-.003 16.239 1.099 2.817 2.662 5.437 4.927 7.482 2.588 2.337 5.609 3.907 8.886 5.046 5.484 1.906 11.61 2.472 17.369 1.843 12.235-1.337 23.423-6.957 33.303-14.086 10.001-7.217 19-15.778 27.723-24.466 18.087-18.016 34.713-37.669 49.051-58.805a319 319 0 0 0 4.922-7.481c1.493-2.34.561-5.947-1.9-7.248-2.622-1.385-5.654-.597-7.248 1.9Z"/></g><path fill="#2c3e5a" d="M242.094 149.279c-21.085-18.803-42.169-37.605-63.354-56.295l-8.974-7.917c-1.496-1.319-2.985-2.647-4.487-3.959-2.348-2.05-4.703-4.133-8.069-3.06-1.363.435-2.889 1.591-3.122 3.122-.288 1.896-.343 3.471.888 5.064.606.784 1.278 1.446 2.02 2.101 1.371 1.212 2.799 2.365 4.198 3.544l8.213 6.919 16.045 13.516c10.828 9.121 21.719 18.166 32.595 27.229l18.428 15.355c1.595 1.329 4.077 1.679 5.619 0 1.387-1.511 1.657-4.142 0-5.619m-49.822 58.767c-12.303-.605-24.573-1.658-36.831-2.849a589 589 0 0 1-18.6-2.107q-1.1-.143-2.199-.289c-.927-.122 1.124.155-.436-.059l-.972-.133a590 590 0 0 1-13.828-2.077c-7.155-1.163-14.287-2.836-21.486-3.653-2.587-.294-4.849 2.227-5.162 4.557-.337 2.507 1.211 5.133 3.765 5.767 3.023.751 6.129 1.129 9.209 1.579 3.376.493 6.757.956 10.141 1.398a584 584 0 0 0 18.524 2.12c12.216 1.201 24.47 2.076 36.744 2.324 7.043.142 14.087.154 21.131.045 1.789-.028 3.311-1.502 3.311-3.311 0-1.866-1.518-3.223-3.311-3.311ZM299.847 98.819c-3.533-8.919-6.941-17.89-10.514-26.792-1.774-4.421-3.561-8.836-5.33-13.259q-1.327-3.317-2.648-6.637a81 81 0 0 0-1.537-3.663c-.603-1.321-1.512-2.366-2.425-3.483-1.694-2.071-5.699-.421-5.44 2.253.141 1.451.241 2.853.752 4.228.461 1.242.989 2.456 1.513 3.673q1.363 3.168 2.732 6.334c1.922 4.447 3.843 8.896 5.791 13.332 3.857 8.782 7.945 17.471 11.963 26.181 1.32 2.86 6.322.806 5.144-2.169Zm408.096 149.094a327 327 0 0 1 22.248-33.012l.398-.518-.027.035q.532-.686 1.067-1.369a327 327 0 0 1 37.548-40.369 287 287 0 0 1 9.094-7.944 166 166 0 0 1 3.268-2.655l.665-.521c.63-.494-.783.589-.142.112 1.577-1.173 3.154-2.341 4.786-3.437 3.29-2.21 6.73-4.157 10.354-5.763q.283-.123.565-.248c.611-.273-.473.202-.479.203.432-.078.919-.365 1.335-.521a44 44 0 0 1 2.906-.971c1.849-.544 3.714-.823 5.592-1.219.004 0-1.266.136-.578.087.274-.02.548-.058.822-.082q.691-.061 1.385-.096a31.6 31.6 0 0 1 4.862.143c.171.018.342.042.514.059.674.07-.837-.119-.758-.101.441.105.906.146 1.353.232a33.6 33.6 0 0 1 5.751 1.655c.213.082.424.171.637.252.619.237-.73-.315-.667-.283.763.39 1.561.712 2.323 1.109a39 39 0 0 1 5.125 3.198c.14.103.277.21.418.312.532.387-.597-.473-.556-.43.592.611 1.363 1.112 2 1.682a44 44 0 0 1 3.462 3.472c.547.614 1.06 1.253 1.587 1.884.428.512-.464-.612-.427-.56.102.143.213.281.318.422q.42.566.826 1.143a45 45 0 0 1 2.629 4.181 43 43 0 0 1 1.656 3.312c.072.161.14.323.213.484.307.679-.6-1.509-.148-.337.591 1.536 1.131 3.083 1.556 4.674a41 41 0 0 1 .847 3.948c.164 1.015-.003.017-.043-.419.151 1.64.313 3.258.307 4.908-.006 1.688-.227 3.343-.318 5.023.004-.082.235-1.588.075-.563l-.082.53q-.099.617-.214 1.232a46 46 0 0 1-2.427 8.375c-.087.221-.179.441-.266.662-.243.621.293-.681.267-.631-.397.799-.731 1.632-1.129 2.432a52 52 0 0 1-2.45 4.382c-.891 1.43-1.863 2.798-2.865 4.151-.391.528.422-.541.393-.508-.159.178-.301.38-.451.566q-.342.423-.69.839a58.4 58.4 0 0 1-7.332 7.297c-.327.272-.658.538-.988.806-.14.114-.663.511.034-.019.815-.621-.164.122-.262.195a58.4 58.4 0 0 1-10.783 6.39c-.385.175-.779.334-1.162.512.097-.045 1.353-.55.418-.184l-.674.267c-.856.332-1.72.653-2.597.924-.42.129-.843.249-1.271.349-.147.034-.801.11-.856.174.179-.208 1.194-.043.294-.07-.112-.003-.837-.018-.85-.003.052-.062 1.162.281.531.073-.056-.018-.585-.182-.616-.158.081-.062 1.233.675.397.168-.136-.082-.287-.19-.43-.256-.5-.231.515.375.533.434-.038-.119-.786-.879-.923-.952.128.068.789 1.193.333.378-.083-.149-.178-.291-.262-.44s-.16-.304-.243-.455c-.461-.835.151.328.173.451-.139-.79-.518-1.565-.675-2.366-.035-.18-.046-.506-.119-.688.002.006.128 1.366.1.656-.019-.489-.081-.977-.099-1.467a25 25 0 0 1 .082-3.105c.013-.149.105-.476.06-.615.004.013-.184 1.167-.072.511.081-.475.155-.95.25-1.422.204-1.014.465-2.017.769-3.006q.4-1.296.894-2.559c.047-.12.255-.759.314-.779.012-.004-.445.987-.153.382.246-.51.465-1.031.72-1.538a60 60 0 0 1 2.974-5.216c2.158-3.405 4.588-6.625 7.044-9.818.107-.139.685-.889.237-.309-.418.542.038-.049.104-.133l.95-1.222a522 522 0 0 1 5.911-7.443 539 539 0 0 1 69.314-71.119c6.322-5.39 12.882-10.52 19.138-15.982a550 550 0 0 0 4.443-3.92q1.145-1.021 2.296-2.035l.987-.868c.216-.19.459-.374.659-.577.018-.018.566-.521.17-.229 1.704-1.254 2.728-3.574 1.455-5.549-1.088-1.687-3.722-2.8-5.549-1.455-1.747 1.286-3.752 2.328-5.591 3.492a189 189 0 0 0-5.32 3.502c-3.826 2.608-7.447 5.562-11.09 8.417-6.84 5.361-13.425 11.067-19.908 16.852a539 539 0 0 0-37.023 36.393c-11.927 12.911-23.376 26.378-33.866 40.489-5.084 6.839-9.999 14.632-11.333 23.2-.735 4.718-.747 9.543 1.135 14.005 2.144 5.079 6.92 8.513 12.574 8.127 4.572-.312 9.015-2.309 13.086-4.286a58.4 58.4 0 0 0 9.173-5.56c6.364-4.704 11.857-10.312 16.183-16.963 8.304-12.766 11.382-29.231 6.027-43.739-5.274-14.288-17.079-26.552-32.138-30.299-8.045-2.002-16.581-1.307-24.314 1.618-8.429 3.188-15.725 8.403-22.548 14.209-12.879 10.96-24.644 23.423-35.44 36.418-11.036 13.285-21.091 27.395-29.953 42.221a331 331 0 0 0-6.26 10.95c-.976 1.784-.439 4.106 1.351 5.153 1.768 1.034 4.117.406 5.153-1.351Z"/><path fill="#2c3e5a" d="M914.53 84.682a552 552 0 0 1-13.112-1.958c-4.659-.745-9.337-1.267-14.019-1.851a931 931 0 0 1-6.655-.854l-1.725-.229c.828.111-.36-.049-.616-.084a785 785 0 0 1-3.429-.473c-4.41-.616-8.812-1.288-13.219-1.919a949 949 0 0 1-15.183-2.302v10.663c16.769-5.87 33.348-12.251 49.943-18.591 17.441-6.663 34.883-13.333 52.458-19.638 9.141-3.279 18.319-6.459 27.566-9.425l-7.12-7.12a104 104 0 0 1-3.817 13.558q-1.12 3.15-2.399 6.239c-.104.25-.202.507-.314.754.585-1.287.24-.567.115-.28q-.319.737-.642 1.473-.64 1.444-1.304 2.877c-3.109 6.698-6.712 13.146-9.92 19.795-4.402 9.124-8.438 18.437-12.572 27.685-4.328 9.682-8.632 19.375-12.933 29.068-4.872 10.982-9.854 21.923-14.577 32.97l10.966 2.97a3562 3562 0 0 1 3.675-56.277c.396-5.37.812-10.738 1.109-16.115.152-2.75-2.526-5.378-5.256-5.256-3.069.137-4.979 2.315-5.256 5.256-1.764 18.736-2.843 37.534-4.563 56.277l-1.478 16.115c-.224 2.446 1.978 5.141 4.32 5.674 2.385.543 5.521-.302 6.645-2.704 9.054-19.349 17.476-39.007 26.223-58.497 4.41-9.826 8.827-19.65 13.268-29.462 2.925-6.463 6.367-12.681 9.383-19.102 4.509-9.597 8.344-19.532 10.49-29.941.425-2.061.044-4.099-1.488-5.631-1.411-1.411-3.69-2.115-5.631-1.488-16.905 5.459-33.587 11.593-50.207 17.857-17.478 6.587-34.881 13.368-52.339 20.009-9.084 3.455-18.166 6.923-27.284 10.288-2.221.82-4.174 2.776-4.059 5.331.099 2.217 1.622 4.984 4.059 5.331 9.233 1.316 18.477 2.519 27.754 3.475q6.77.698 13.548 1.298c4.428.392 8.879.885 13.322.998 5.106.13 10.212.21 15.317.307 1.774.034 3.331-1.394 3.536-3.122.188-1.579-.785-3.707-2.579-3.951Z"/><path fill="#2c3e5a" d="M867.049 79.238c.994.002 1.785.482 2.525 1.115.964.824 1.872 1.684 2.912 2.447 2.238 1.642 4.911 2.206 7.617 1.52 6.164-1.565 8.434-7.523 10.553-12.807h-5.827c.453 2.62 1.018 5.133 2.727 7.253 1.679 2.083 4.452 3.202 7.104 2.835 3.032-.42 4.885-2.918 5.532-5.754.667-2.924 1.192-5.884 1.81-8.818h-6.33c1.106 7.012 4.356 13.591 9.2 18.769 1.842 1.969 4.792.777 5.607-1.48 1.507-4.174 2.913-8.388 4.457-12.548 1.548-4.171 3.188-8.307 4.686-12.497l-6.869-.93c.151 11.091.274 22.183.497 33.273.032 1.606 1.148 3.282 2.783 3.655 1.515.345 3.587-.186 4.28-1.742 4.099-9.199 7.043-18.724 8.892-28.62l-7.674-1.039c-.207 8.917.059 17.843.92 26.721.204 2.105 1.445 3.835 3.647 4.131 2.109.283 3.968-.999 4.615-3.013 3.555-11.059 6.644-22.252 9.338-33.551l-8.617-1.166c.029 4.442-.172 8.885-.543 13.31a180 180 0 0 1-.879 8.188c-.069.54-.011.094.004-.012q-.065.48-.133.959a212 212 0 0 1-.499 3.353c-1.381 8.803-3.283 17.514-5.368 26.175a3325 3325 0 0 1-3.561 14.652c-.579 2.358.561 4.766 2.804 5.712 2.272.959 4.72.063 6.047-1.981 10.221-15.751 18.322-32.896 24.074-50.768a209 209 0 0 0 4.232-15.091l-9.338-2.575a127 127 0 0 1-4.411 18.649 127 127 0 0 1-3.168 8.809l-.43 1.058c-.569 1.393.38-.863-.217.518q-.452 1.049-.92 2.09a133 133 0 0 1-2.156 4.537l8.943 3.77a407 407 0 0 1 15.635-45.14l.735-1.765c.441-1.058-.167.386.243-.577q.749-1.758 1.511-3.512c1-2.299.834-4.772-1.279-6.405-1.987-1.535-4.689-1.313-6.519.388a75.2 75.2 0 0 0-14.063 17.693c-1.317 2.302-.617 5.647 1.818 6.933 2.647 1.398 5.245.466 6.933-1.818l7.834-10.597c1.203-1.628.73-4.237-.401-5.702-1.297-1.678-3.341-2.291-5.397-1.84l-23.012 5.055c-3.618.795-5.381 6.317-2.318 8.78.384.308.759.623 1.11.969q.26.258.504.531.548.654-.13-.209c.533.388 1.337 1.904 1.464 2.545q-.425-1.019-.114-.212.126.351.234.708.163.538.292 1.084c.105.447.297 1.013.279 1.474.056-1.493-.024.14-.008.485.052 1.164-.036 2.313-.135 3.472.098-1.14-.067.362-.091.493a35 35 0 0 1-.386 1.851c-.58 2.467-1.394 4.871-2.206 7.269l10.02 1.356c-.318-2.413-.511-4.839-.522-7.274a53 53 0 0 1 .262-5.512c.029-.293.064-.585.095-.877.101-.957-.07.36.027-.229.396-2.407.864-4.782 1.543-7.127a53 53 0 0 1 1.095-3.358c.226-.623.476-1.235.715-1.853.272-.704-.268.593.042-.098.151-.337.295-.675.454-1.009 1.049-2.205.684-5.151-1.678-6.399-2.083-1.101-5.277-.681-6.399 1.678-4.747 9.977-7.165 20.998-5.837 32.058.306 2.551 1.708 4.645 4.423 5.01 2.608.35 4.744-1.228 5.597-3.654 1.853-5.27 3.73-10.874 3.314-16.545-.38-5.187-2.29-10.757-6.535-14.058l-2.318 8.78 22.948-5.284-5.798-7.542-7.719 10.665 8.751 5.115a71 71 0 0 1 2.715-4.482 69 69 0 0 1 2.256-3.217c.062-.083.952-1.212.277-.372 2.194-2.731 4.522-5.324 7.084-7.716l-7.797-6.016c-7.507 17.367-13.894 35.18-18.986 53.404-.658 2.357.621 4.839 2.833 5.772 2.103.887 5.027.189 6.11-2.002 5.931-12.003 10.098-24.796 12.191-38.024.394-2.492-.637-5.331-3.382-5.956-2.49-.567-5.322.748-5.956 3.382a209 209 0 0 1-9.932 30.649l-.343.828c-.341.825.094-.209-.121.288-.92 2.124-1.85 4.242-2.827 6.341a207 207 0 0 1-14.107 25.442l8.85 3.731c4.361-17.763 8.488-35.683 9.938-53.96.403-5.072.557-10.153.477-15.24a4.396 4.396 0 0 0-3.804-4.309c-2.054-.276-4.336 1.002-4.813 3.142-2.526 11.333-5.55 22.557-8.989 33.647l8.262 1.118c-.954-8.879-1.502-17.79-1.52-26.721-.004-1.949-1.484-3.581-3.387-3.837-1.745-.235-3.977.877-4.286 2.798-1.48 9.194-4.236 18.481-7.903 26.872l7.063 1.913c-.303-11.093-.708-22.183-1.083-33.273-.135-3.999-5.614-4.674-6.869-.93-1.409 4.206-2.715 8.449-4.175 12.638s-3.106 8.335-4.694 12.483l5.607-1.48c-3.983-4.425-6.59-9.832-7.614-15.77-.547-3.169-5.724-3.096-6.33 0-.413 2.11-.844 4.216-1.272 6.322-.206 1.015-.358 2.065-.65 3.061-.192.656.115.036-.234.612a.46.46 0 0 1 .226-.167q-.46.26-.175.107.291-.138-.211.018.51-.059-.094-.04c.517.199-.365-.115-.443-.146.406.159-.42-.275-.438-.288.337.237-.186-.234-.221-.279-.959-1.245-1.219-3.018-1.503-4.577-.537-2.941-5.203-2.822-5.827 0-.838 3.797-2.416 9.641-7.109 10.144-2.081.223-3.516-1.401-5.177-2.328-1.853-1.034-3.732-1.798-5.88-1.33-1.617.353-1.226 2.842.385 2.845Z"/><path fill="#62c584" d="M35.31 437.38c.909-9.258 7.949-16.886 15.794-21.239 9.687-5.376 21.043-6.823 31.817-8.563a1699 1699 0 0 1 71.973-10.054c24.047-2.835 48.139-5.272 72.28-7.163a1717 1717 0 0 1 145.158-5.209c2.97.019 5.94-.006 8.91-.009 3.573-.003 3.569-5.468 0-5.546-24.77-.542-49.595-.031-74.353.803a1719 1719 0 0 0-73.906 4.086c-24.715 1.901-49.404 4.287-74.005 7.332a1730 1730 0 0 0-73.223 10.648c-19.311 3.234-45.382 6.459-52.667 28.169-.732 2.181-1.122 4.45-1.253 6.744-.129 2.259 3.261 2.191 3.476 0Zm557.072-61.678c25.716-1.95 51.482-3.244 77.26-4.018a1546 1546 0 0 1 154.328 3.078c25.022 1.752 50.093 4.28 74.94 7.728 19.608 2.721 40.844 6.709 56.859 19.164.899.699 1.73 1.511 2.67 2.154 1.077.737 2.298 1.299 3.424 1.963 2.568 1.515 5.88-1.571 4.19-4.19-.687-1.065-1.381-2.134-2.163-3.132-.912-1.163-2.139-2.028-3.302-2.929-2.008-1.555-4.074-3.025-6.232-4.367-4.488-2.792-9.278-5.049-14.192-6.984-9.631-3.793-19.767-5.939-29.98-7.451-11.626-1.721-23.352-2.771-35.052-3.835a1543 1543 0 0 0-38.725-3.029c-25.993-1.704-51.969-3.21-78.016-3.842a1547 1547 0 0 0-78.118.077c-26.044.684-52.053 2.114-78.02 4.226q-4.938.403-9.873.835c-2.888.253-2.936 4.775 0 4.553Z"/></svg>